<?xml version="1.0" encoding="UTF-8" standalone="no"?>
<svg
   xmlns:dc="http://purl.org/dc/elements/1.1/"
   xmlns:cc="http://creativecommons.org/ns#"
   xmlns:rdf="http://www.w3.org/1999/02/22-rdf-syntax-ns#"
   xmlns:svg="http://www.w3.org/2000/svg"
   xmlns="http://www.w3.org/2000/svg"
   xmlns:sodipodi="http://sodipodi.sourceforge.net/DTD/sodipodi-0.dtd"
   xmlns:inkscape="http://www.inkscape.org/namespaces/inkscape"
   viewBox="0 0 1622.5 415"
   height="415"
   width="1622.5"
   xml:space="preserve"
   version="1.1"
   id="svg2"
   inkscape:version="0.91 r13725"
   sodipodi:docname="family.gv.svg"><sodipodi:namedview
     pagecolor="#ffffff"
     bordercolor="#666666"
     borderopacity="1"
     objecttolerance="10"
     gridtolerance="10"
     guidetolerance="10"
     inkscape:pageopacity="0"
     inkscape:pageshadow="2"
     inkscape:window-width="1276"
     inkscape:window-height="755"
     id="namedview243"
     showgrid="false"
     inkscape:zoom="0.51833422"
     inkscape:cx="811.57467"
     inkscape:cy="207.5"
     inkscape:window-x="4"
     inkscape:window-y="1"
     inkscape:window-maximized="1"
     inkscape:current-layer="g354" /><metadata
     id="metadata8"><rdf:RDF><cc:Work
         rdf:about=""><dc:format>image/svg+xml</dc:format><dc:type
           rdf:resource="http://purl.org/dc/dcmitype/StillImage" /><dc:title /></cc:Work></rdf:RDF></metadata><defs
     id="defs6" /><g
     transform="matrix(1.25,0,0,-1.25,0,415)"
     id="g10"><g
       id="g12" /><g
       id="g14"><g
         transform="translate(40,40)"
         id="g16"><path
           id="path18"
           style="fill:#b0e2ff;fill-opacity:1;fill-rule:nonzero;stroke:#000000;stroke-width:1;stroke-linecap:butt;stroke-linejoin:miter;stroke-miterlimit:10;stroke-dasharray:none;stroke-opacity:1"
           d="m 173.4365,234 c 0,9.9411 -31.363,18 -70.0512,18 -38.68815,0 -70.05111,-8.0589 -70.05111,-18 0,-9.9411 31.36296,-18 70.05111,-18 38.6882,0 70.0512,8.0589 70.0512,18 z" /></g><g
         transform="translate(40,40)"
         id="g20"><text
           id="text22"
           style="font-variant:normal;font-weight:normal;font-size:14px;font-family:Times;-inkscape-font-specification:Times-Roman;writing-mode:lr-tb;fill:#7f7f7f;fill-opacity:1;fill-rule:nonzero;stroke:none"
           transform="matrix(1,0,0,-1,55.75934,229.8)"><tspan
             id="tspan24"
             y="0"
             x="0 7.7867999 12.4488 18.662001 25.662001 31.8752 35.7644 41.2132 47.426399 54.426399 57.926399 62.588402 69.588402 76.588402 83.588402 90.588402">Francisco (1918)</tspan></text>
</g><g
         transform="translate(40,40)"
         id="g26"><path
           id="path28"
           style="fill:#b0e2ff;fill-opacity:1;fill-rule:nonzero;stroke:#000000;stroke-width:1;stroke-linecap:butt;stroke-linejoin:miter;stroke-miterlimit:10;stroke-dasharray:none;stroke-opacity:1"
           d="m 130.6957,162 c 0,9.9411 -28.345,18 -63.31038,18 -34.96535,0 -63.310365,-8.0589 -63.310365,-18 0,-9.9411 28.345015,-18 63.310365,-18 34.96538,0 63.31038,8.0589 63.31038,18 z" /></g><g
         transform="translate(40,40)"
         id="g30"><text
           id="text32"
           style="font-variant:normal;font-weight:normal;font-size:14px;font-family:Times;-inkscape-font-specification:Times-Roman;writing-mode:lr-tb;fill:#000000;fill-opacity:1;fill-rule:nonzero;stroke:none"
           transform="matrix(1,0,0,-1,25.19733,157.8)"><tspan
             id="tspan34"
             y="0"
             x="0 12.4488 18.662001 25.662001 32.661999 36.551201 43.551201 47.051201 51.7132 58.7132 65.713203 72.713203 79.713203">Manolo (1933)</tspan></text>
</g><g
         transform="translate(40,40)"
         id="g36"><path
           id="path38"
           style="fill:none;stroke:#000000;stroke-width:1;stroke-linecap:butt;stroke-linejoin:miter;stroke-miterlimit:10;stroke-dasharray:none;stroke-opacity:1"
           d="M 94.301,215.8314 C 90.21972,207.6688 85.32032,197.87 80.82668,188.8827" /></g><g
         transform="translate(40,40)"
         id="g40"><path
           id="path42"
           style="fill:#000000;fill-opacity:1;fill-rule:nonzero;stroke:#000000;stroke-width:1;stroke-linecap:butt;stroke-linejoin:miter;stroke-miterlimit:10;stroke-dasharray:none;stroke-opacity:1"
           d="m 83.94472,187.2924 -7.60269,-7.379 1.34169,10.5096 6.261,-3.1306 z" /></g><g
         transform="translate(40,40)"
         id="g44"><path
           id="path46"
           style="fill:#b0e2ff;fill-opacity:1;fill-rule:nonzero;stroke:#000000;stroke-width:1;stroke-linecap:butt;stroke-linejoin:miter;stroke-miterlimit:10;stroke-dasharray:none;stroke-opacity:1"
           d="m 416.163,162 c 0,9.9411 -28.5542,18 -63.7777,18 -35.2234,0 -63.7777,-8.0589 -63.7777,-18 0,-9.9411 28.5543,-18 63.7777,-18 35.2235,0 63.7777,8.0589 63.7777,18 z" /></g><g
         transform="translate(40,40)"
         id="g48"><text
           id="text50"
           style="font-variant:normal;font-weight:normal;font-size:14px;font-family:Times;-inkscape-font-specification:Times-Roman;writing-mode:lr-tb;fill:#000000;fill-opacity:1;fill-rule:nonzero;stroke:none"
           transform="matrix(1,0,0,-1,309.8145,157.8)"><tspan
             id="tspan52"
             y="0"
             x="0 8.5511999 15.5512 20.2132 24.1024 31.1024 38.102402 44.315601 47.815601 52.4776 59.4776 66.4776 73.4776 80.4776">Enrique (1935)</tspan></text>
</g><g
         transform="translate(40,40)"
         id="g54"><path
           id="path56"
           style="fill:none;stroke:#000000;stroke-width:1;stroke-linecap:butt;stroke-linejoin:miter;stroke-miterlimit:10;stroke-dasharray:none;stroke-opacity:1"
           d="m 150.2203,220.4574 c 41.911,-12.1189 103.3727,-29.891 147.5149,-42.655" /></g><g
         transform="translate(40,40)"
         id="g58"><path
           id="path60"
           style="fill:#000000;fill-opacity:1;fill-rule:nonzero;stroke:#000000;stroke-width:1;stroke-linecap:butt;stroke-linejoin:miter;stroke-miterlimit:10;stroke-dasharray:none;stroke-opacity:1"
           d="m 298.8033,181.1371 8.6342,-6.1401 -10.5787,-0.5845 1.9445,6.7246 z" /></g><g
         transform="translate(40,40)"
         id="g62"><path
           id="path64"
           style="fill:#b0e2ff;fill-opacity:1;fill-rule:nonzero;stroke:#000000;stroke-width:1;stroke-linecap:butt;stroke-linejoin:miter;stroke-miterlimit:10;stroke-dasharray:none;stroke-opacity:1"
           d="m 629.7661,234 c 0,9.9411 -27.4811,18 -61.3808,18 -33.8997,0 -61.3808,-8.0589 -61.3808,-18 0,-9.9411 27.4811,-18 61.3808,-18 33.8997,0 61.3808,8.0589 61.3808,18 z" /></g><g
         transform="translate(40,40)"
         id="g66"><text
           id="text68"
           style="font-variant:normal;font-weight:normal;font-size:14px;font-family:Times;-inkscape-font-specification:Times-Roman;writing-mode:lr-tb;fill:#7f7f7f;fill-opacity:1;fill-rule:nonzero;stroke:none"
           transform="matrix(1,0,0,-1,527.7525,229.8)"><tspan
             id="tspan70"
             y="0"
             x="0 12.4488 16.337999 23.337999 30.337999 36.551201 40.440399 43.940399 48.602402 55.602402 62.602402 69.602402 76.602402">Miguel (1921)</tspan></text>
</g><g
         transform="translate(40,40)"
         id="g72"><path
           id="path74"
           style="fill:#b0e2ff;fill-opacity:1;fill-rule:nonzero;stroke:#000000;stroke-width:1;stroke-linecap:butt;stroke-linejoin:miter;stroke-miterlimit:10;stroke-dasharray:none;stroke-opacity:1"
           d="m 1133.149,162 c 0,9.9411 -28.996,18 -64.764,18 -35.768,0 -64.764,-8.0589 -64.764,-18 0,-9.9411 28.996,-18 64.764,-18 35.768,0 64.764,8.0589 64.764,18 z" /></g><g
         transform="translate(40,40)"
         id="g76"><text
           id="text78"
           style="font-variant:normal;font-weight:normal;font-size:14px;font-family:Times;-inkscape-font-specification:Times-Roman;writing-mode:lr-tb;fill:#7f7f7f;fill-opacity:1;fill-rule:nonzero;stroke:none"
           transform="matrix(1,0,0,-1,1025.028,157.8)"><tspan
             id="tspan80"
             y="0"
             x="0 10.1108 17.1108 21 28 35 38.889198 45.889198 49.389198 54.051201 61.051201 68.051201 75.051201 82.051201">Antonio (1943)</tspan></text>
</g><g
         transform="translate(40,40)"
         id="g82"><path
           id="path84"
           style="fill:none;stroke:#000000;stroke-width:1;stroke-linecap:butt;stroke-linejoin:miter;stroke-miterlimit:10;stroke-dasharray:none;stroke-opacity:1"
           d="m 612.9764,221.4637 c 8.3926,-2.0543 17.1319,-3.9897 25.4089,-5.4637 156.5659,-27.8817 199.2551,-9.1429 356,-36 5.4571,-0.935 11.1087,-2.0458 16.7457,-3.2498" /></g><g
         transform="translate(40,40)"
         id="g86"><path
           id="path88"
           style="fill:#000000;fill-opacity:1;fill-rule:nonzero;stroke:#000000;stroke-width:1;stroke-linecap:butt;stroke-linejoin:miter;stroke-miterlimit:10;stroke-dasharray:none;stroke-opacity:1"
           d="m 1012.218,180.0939 8.998,-5.5937 -10.522,-1.2384 1.524,6.8321 z" /></g><g
         transform="translate(40,40)"
         id="g90"><path
           id="path92"
           style="fill:#b0e2ff;fill-opacity:1;fill-rule:nonzero;stroke:#000000;stroke-width:1;stroke-linecap:butt;stroke-linejoin:miter;stroke-miterlimit:10;stroke-dasharray:none;stroke-opacity:1"
           d="m 703.1235,162 c 0,9.9411 -28.9843,18 -64.7382,18 -35.7539,0 -64.7381,-8.0589 -64.7381,-18 0,-9.9411 28.9842,-18 64.7381,-18 35.7539,0 64.7382,8.0589 64.7382,18 z" /></g><g
         transform="translate(40,40)"
         id="g94"><text
           id="text96"
           style="font-variant:normal;font-weight:normal;font-size:14px;font-family:Times;-inkscape-font-specification:Times-Roman;writing-mode:lr-tb;fill:#000000;fill-opacity:1;fill-rule:nonzero;stroke:none"
           transform="matrix(1,0,0,-1,595.0386,157.8)"><tspan
             id="tspan98"
             y="0"
             x="0 8.5511999 15.5512 21.7644 25.653601 31.8668 38.866798 45.866798 49.366798 54.028801 61.028801 68.028801 75.028801 82.028801">Luciano (1938)</tspan></text>
</g><g
         transform="translate(40,40)"
         id="g100"><path
           id="path102"
           style="fill:none;stroke:#000000;stroke-width:1;stroke-linecap:butt;stroke-linejoin:miter;stroke-miterlimit:10;stroke-dasharray:none;stroke-opacity:1"
           d="m 585.3304,216.5708 c 8.7057,-8.9544 19.4637,-20.0198 29.0117,-29.8406" /></g><g
         transform="translate(40,40)"
         id="g104"><path
           id="path106"
           style="fill:#000000;fill-opacity:1;fill-rule:nonzero;stroke:#000000;stroke-width:1;stroke-linecap:butt;stroke-linejoin:miter;stroke-miterlimit:10;stroke-dasharray:none;stroke-opacity:1"
           d="m 616.8924,189.128 4.4613,-9.6098 -9.4803,4.7302 5.019,4.8796 z" /></g><g
         transform="translate(40,40)"
         id="g108"><path
           id="path110"
           style="fill:#ffaeb9;fill-opacity:1;fill-rule:nonzero;stroke:#000000;stroke-width:1;stroke-linecap:butt;stroke-linejoin:miter;stroke-miterlimit:10;stroke-dasharray:none;stroke-opacity:1"
           d="m 555.869,162 c 0,9.9411 -25.2886,18 -56.4837,18 -31.1951,0 -56.4837,-8.0589 -56.4837,-18 0,-9.9411 25.2886,-18 56.4837,-18 31.1951,0 56.4837,8.0589 56.4837,18 z" /></g><g
         transform="translate(40,40)"
         id="g112"><text
           id="text114"
           style="font-variant:normal;font-weight:normal;font-size:14px;font-family:Times;-inkscape-font-specification:Times-Roman;writing-mode:lr-tb;fill:#000000;fill-opacity:1;fill-rule:nonzero;stroke:none"
           transform="matrix(1,0,0,-1,462.6695,157.8)"><tspan
             id="tspan116"
             y="0"
             x="0 9.2763996 13.1656 18.614401 22.503599 26.392799 32.605999 36.105999 40.768002 47.768002 54.768002 61.768002 68.767998">Visita (1945)</tspan></text>
</g><g
         transform="translate(40,40)"
         id="g118"><path
           id="path120"
           style="fill:none;stroke:#000000;stroke-width:1;stroke-linecap:butt;stroke-linejoin:miter;stroke-miterlimit:10;stroke-dasharray:none;stroke-opacity:1"
           d="M 551.6823,216.5708 C 543.0374,207.55 532.3395,196.387 522.8761,186.5121" /></g><g
         transform="translate(40,40)"
         id="g122"><path
           id="path124"
           style="fill:#000000;fill-opacity:1;fill-rule:nonzero;stroke:#000000;stroke-width:1;stroke-linecap:butt;stroke-linejoin:miter;stroke-miterlimit:10;stroke-dasharray:none;stroke-opacity:1"
           d="m 525.3805,184.0669 -9.446,-4.7982 4.3921,9.6416 5.0539,-4.8434 z" /></g><g
         transform="translate(40,40)"
         id="g126"><path
           id="path128"
           style="fill:#b0e2ff;fill-opacity:1;fill-rule:nonzero;stroke:#000000;stroke-width:1;stroke-linecap:butt;stroke-linejoin:miter;stroke-miterlimit:10;stroke-dasharray:none;stroke-opacity:1"
           d="m 1086.635,90 c 0,9.94113 -22.946,18 -51.25,18 -28.304,0 -51.2489,-8.05887 -51.2489,-18 0,-9.94113 22.9449,-18 51.2489,-18 28.304,0 51.25,8.05887 51.25,18 z" /></g><g
         transform="translate(40,40)"
         id="g130"><text
           id="text132"
           style="font-variant:normal;font-weight:normal;font-size:14px;font-family:Times;-inkscape-font-specification:Times-Roman;writing-mode:lr-tb;fill:#000000;fill-opacity:1;fill-rule:nonzero;stroke:none"
           transform="matrix(1,0,0,-1,1002.918,85.8)"><tspan
             id="tspan134"
             y="0"
             x="0 5.4488001 12.4488 17.8976 24.1108 27.6108 32.2728 39.2728 46.2728 53.2728 60.2728">Jose (1972)</tspan></text>
</g><g
         transform="translate(40,40)"
         id="g136"><path
           id="path138"
           style="fill:none;stroke:#000000;stroke-width:1;stroke-linecap:butt;stroke-linejoin:miter;stroke-miterlimit:10;stroke-dasharray:none;stroke-opacity:1"
           d="m 1060.058,143.8314 c -3.702,-8.0767 -8.138,-17.7553 -12.221,-26.6646" /></g><g
         transform="translate(40,40)"
         id="g140"><path
           id="path142"
           style="fill:#000000;fill-opacity:1;fill-rule:nonzero;stroke:#000000;stroke-width:1;stroke-linecap:butt;stroke-linejoin:miter;stroke-miterlimit:10;stroke-dasharray:none;stroke-opacity:1"
           d="m 1050.944,115.5458 -7.348,-7.6324 0.985,10.549 6.363,-2.9166 z" /></g><g
         transform="translate(40,40)"
         id="g144"><path
           id="path146"
           style="fill:#b0e2ff;fill-opacity:1;fill-rule:nonzero;stroke:#000000;stroke-width:1;stroke-linecap:butt;stroke-linejoin:miter;stroke-miterlimit:10;stroke-dasharray:none;stroke-opacity:1"
           d="m 1218.405,90 c 0,9.94113 -25.528,18 -57.02,18 -31.491,0 -57.02,-8.05887 -57.02,-18 0,-9.94113 25.529,-18 57.02,-18 31.492,0 57.02,8.05887 57.02,18 z" /></g><g
         transform="translate(40,40)"
         id="g148"><text
           id="text150"
           style="font-variant:normal;font-weight:normal;font-size:14px;font-family:Times;-inkscape-font-specification:Times-Roman;writing-mode:lr-tb;fill:#000000;fill-opacity:1;fill-rule:nonzero;stroke:none"
           transform="matrix(1,0,0,-1,1124.259,85.8)"><tspan
             id="tspan152"
             y="0"
             x="0 5.4488001 11.662 18.662001 22.551201 28.7644 33.426399 36.926399 41.588402 48.588402 55.588402 62.588402 69.588402">Javier (1974)</tspan></text>
</g><g
         transform="translate(40,40)"
         id="g154"><path
           id="path156"
           style="fill:none;stroke:#000000;stroke-width:1;stroke-linecap:butt;stroke-linejoin:miter;stroke-miterlimit:10;stroke-dasharray:none;stroke-opacity:1"
           d="m 1090.425,144.937 c 12.366,-9.5736 27.958,-21.645 41.375,-32.0323" /></g><g
         transform="translate(40,40)"
         id="g158"><path
           id="path160"
           style="fill:#000000;fill-opacity:1;fill-rule:nonzero;stroke:#000000;stroke-width:1;stroke-linecap:butt;stroke-linejoin:miter;stroke-miterlimit:10;stroke-dasharray:none;stroke-opacity:1"
           d="m 1134.06,115.5814 5.765,-8.8893 -10.05,3.3543 4.285,5.535 z" /></g><g
         transform="translate(40,40)"
         id="g162"><path
           id="path164"
           style="fill:#ffaeb9;fill-opacity:1;fill-rule:nonzero;stroke:#000000;stroke-width:1;stroke-linecap:butt;stroke-linejoin:miter;stroke-miterlimit:10;stroke-dasharray:none;stroke-opacity:1"
           d="m 966.0483,90 c 0,9.94113 -24.0257,18 -53.663,18 -29.6372,0 -53.663,-8.05887 -53.663,-18 0,-9.94113 24.0258,-18 53.663,-18 29.6373,0 53.663,8.05887 53.663,18 z" /></g><g
         transform="translate(40,40)"
         id="g166"><text
           id="text168"
           style="font-variant:normal;font-weight:normal;font-size:14px;font-family:Times;-inkscape-font-specification:Times-Roman;writing-mode:lr-tb;fill:#000000;fill-opacity:1;fill-rule:nonzero;stroke:none"
           transform="matrix(1,0,0,-1,877.9732,85.8)"><tspan
             id="tspan170"
             y="0"
             x="0 9.3380003 16.337999 21.7868 28 31.5 36.161999 43.161999 50.161999 57.161999 64.162003">Rosa (1971)</tspan></text>
</g><g
         transform="translate(40,40)"
         id="g172"><path
           id="path174"
           style="fill:none;stroke:#000000;stroke-width:1;stroke-linecap:butt;stroke-linejoin:miter;stroke-miterlimit:10;stroke-dasharray:none;stroke-opacity:1"
           d="M 1034.919,146.5542 C 1011.024,135.5257 978.7437,120.627 953.3136,108.89" /></g><g
         transform="translate(40,40)"
         id="g176"><path
           id="path178"
           style="fill:#000000;fill-opacity:1;fill-rule:nonzero;stroke:#000000;stroke-width:1;stroke-linecap:butt;stroke-linejoin:miter;stroke-miterlimit:10;stroke-dasharray:none;stroke-opacity:1"
           d="m 954.4808,105.5739 -10.5464,-1.0128 7.6129,7.3685 2.9335,-6.3557 z" /></g><g
         transform="translate(40,40)"
         id="g180"><path
           id="path182"
           style="fill:#ffaeb9;fill-opacity:1;fill-rule:nonzero;stroke:#000000;stroke-width:1;stroke-linecap:butt;stroke-linejoin:miter;stroke-miterlimit:10;stroke-dasharray:none;stroke-opacity:1"
           d="m 128.6562,90 c 0,9.94113 -28.77507,18 -64.27088,18 -35.49581,0 -64.2708443,-8.05887 -64.2708443,-18 0,-9.94113 28.7750343,-18 64.2708443,-18 35.49581,0 64.27088,8.05887 64.27088,18 z" /></g><g
         transform="translate(40,40)"
         id="g184"><text
           id="text186"
           style="font-variant:normal;font-weight:normal;font-size:14px;font-family:Times;-inkscape-font-specification:Times-Roman;writing-mode:lr-tb;fill:#000000;fill-opacity:1;fill-rule:nonzero;stroke:none"
           transform="matrix(1,0,0,-1,21.42145,85.8)"><tspan
             id="tspan188"
             y="0"
             x="0 10.1108 17.1108 21 28 35 38.889198 45.102402 48.602402 53.2644 60.2644 67.264397 74.264397 81.264397">Antonia (1966)</tspan></text>
</g><g
         transform="translate(40,40)"
         id="g190"><path
           id="path192"
           style="fill:none;stroke:#000000;stroke-width:1;stroke-linecap:butt;stroke-linejoin:miter;stroke-miterlimit:10;stroke-dasharray:none;stroke-opacity:1"
           d="M 66.62829,143.8314 C 66.30744,136.131 65.92592,126.9743 65.56935,118.4166" /></g><g
         transform="translate(40,40)"
         id="g194"><path
           id="path196"
           style="fill:#000000;fill-opacity:1;fill-rule:nonzero;stroke:#000000;stroke-width:1;stroke-linecap:butt;stroke-linejoin:miter;stroke-miterlimit:10;stroke-dasharray:none;stroke-opacity:1"
           d="m 69.06591,118.2589 -3.91337,-9.8456 -3.08056,10.137 6.99393,-0.2914 z" /></g><g
         transform="translate(40,40)"
         id="g198"><path
           id="path200"
           style="fill:#b0e2ff;fill-opacity:1;fill-rule:nonzero;stroke:#000000;stroke-width:1;stroke-linecap:butt;stroke-linejoin:miter;stroke-miterlimit:10;stroke-dasharray:none;stroke-opacity:1"
           d="m 706.7093,90 c 0,9.94113 -27.9034,18 -62.324,18 -34.4206,0 -62.324,-8.05887 -62.324,-18 0,-9.94113 27.9034,-18 62.324,-18 34.4206,0 62.324,8.05887 62.324,18 z" /></g><g
         transform="translate(40,40)"
         id="g202"><text
           id="text204"
           style="font-variant:normal;font-weight:normal;font-size:14px;font-family:Times;-inkscape-font-specification:Times-Roman;writing-mode:lr-tb;fill:#000000;fill-opacity:1;fill-rule:nonzero;stroke:none"
           transform="matrix(1,0,0,-1,602.9835,85.8)"><tspan
             id="tspan206"
             y="0"
             x="0 4.6620002 11.662 18.662001 24.8752 31.0884 34.9776 41.9776 45.4776 50.139599 57.139599 64.139603 71.139603 78.139603">Ignacio (1973)</tspan></text>
</g><g
         transform="translate(40,40)"
         id="g208"><path
           id="path210"
           style="fill:none;stroke:#000000;stroke-width:1;stroke-linecap:butt;stroke-linejoin:miter;stroke-miterlimit:10;stroke-dasharray:none;stroke-opacity:1"
           d="M 400.8986,150.1554 C 445.4858,139.2543 513.4061,122.6107 572.3853,108 c 4.8776,-1.2083 9.9401,-2.4662 15.0179,-3.7306" /></g><g
         transform="translate(40,40)"
         id="g212"><path
           id="path214"
           style="fill:#000000;fill-opacity:1;fill-rule:nonzero;stroke:#000000;stroke-width:1;stroke-linecap:butt;stroke-linejoin:miter;stroke-miterlimit:10;stroke-dasharray:none;stroke-opacity:1"
           d="m 588.2862,107.6565 8.8563,-5.8151 -10.5497,-0.977 1.6934,6.7921 z" /></g><g
         transform="translate(40,40)"
         id="g216"><path
           id="path218"
           style="fill:#b0e2ff;fill-opacity:1;fill-rule:nonzero;stroke:#000000;stroke-width:1;stroke-linecap:butt;stroke-linejoin:miter;stroke-miterlimit:10;stroke-dasharray:none;stroke-opacity:1"
           d="m 416.6562,90 c 0,9.94113 -28.7751,18 -64.2709,18 -35.4958,0 -64.2708,-8.05887 -64.2708,-18 0,-9.94113 28.775,-18 64.2708,-18 35.4958,0 64.2709,8.05887 64.2709,18 z" /></g><g
         transform="translate(40,40)"
         id="g220"><text
           id="text222"
           style="font-variant:normal;font-weight:normal;font-size:14px;font-family:Times;-inkscape-font-specification:Times-Roman;writing-mode:lr-tb;fill:#000000;fill-opacity:1;fill-rule:nonzero;stroke:none"
           transform="matrix(1,0,0,-1,309.4215,85.8)"><tspan
             id="tspan224"
             y="0"
             x="0 9.3380003 16.337999 23.337999 29.551201 34.2132 38.102402 45.102402 48.602402 53.2644 60.2644 67.264397 74.264397 81.264397">Roberto (1985)</tspan></text>
</g><g
         transform="translate(40,40)"
         id="g226"><path
           id="path228"
           style="fill:none;stroke:#000000;stroke-width:1;stroke-linecap:butt;stroke-linejoin:miter;stroke-miterlimit:10;stroke-dasharray:none;stroke-opacity:1"
           d="m 352.3853,143.8314 c 0,-7.7004 0,-16.8571 0,-25.4148" /></g><g
         transform="translate(40,40)"
         id="g230"><path
           id="path232"
           style="fill:#000000;fill-opacity:1;fill-rule:nonzero;stroke:#000000;stroke-width:1;stroke-linecap:butt;stroke-linejoin:miter;stroke-miterlimit:10;stroke-dasharray:none;stroke-opacity:1"
           d="m 355.8854,118.4132 -3.5001,-9.9999 -3.4999,10 7,-1e-4 z" /></g><g
         transform="translate(40,40)"
         id="g234"><path
           id="path236"
           style="fill:#ffaeb9;fill-opacity:1;fill-rule:nonzero;stroke:#000000;stroke-width:1;stroke-linecap:butt;stroke-linejoin:miter;stroke-miterlimit:10;stroke-dasharray:none;stroke-opacity:1"
           d="m 563.57,90 c 0,9.94113 -28.7365,18 -64.1847,18 -35.4482,0 -64.1846,-8.05887 -64.1846,-18 0,-9.94113 28.7364,-18 64.1846,-18 35.4482,0 64.1847,8.05887 64.1847,18 z" /></g><g
         transform="translate(40,40)"
         id="g238"><text
           id="text240"
           style="font-variant:normal;font-weight:normal;font-size:14px;font-family:Times;-inkscape-font-specification:Times-Roman;writing-mode:lr-tb;fill:#000000;fill-opacity:1;fill-rule:nonzero;stroke:none"
           transform="matrix(1,0,0,-1,456.4556,85.8)"><tspan
             id="tspan242"
             y="0"
             x="0 9.2763996 13.1656 19.378799 23.268 30.268 34.93 38.819199 45.032398 48.532398 53.194401 60.194401 67.194397 74.194397 81.194397">Victoria (1974)</tspan></text>
</g><g
         transform="translate(40,40)"
         id="g244"><path
           id="path246"
           style="fill:none;stroke:#000000;stroke-width:1;stroke-linecap:butt;stroke-linejoin:miter;stroke-miterlimit:10;stroke-dasharray:none;stroke-opacity:1"
           d="m 384.2821,146.3771 c 21.6928,-10.6251 50.5948,-24.7812 74.0102,-36.2499" /></g><g
         transform="translate(40,40)"
         id="g248"><path
           id="path250"
           style="fill:#000000;fill-opacity:1;fill-rule:nonzero;stroke:#000000;stroke-width:1;stroke-linecap:butt;stroke-linejoin:miter;stroke-miterlimit:10;stroke-dasharray:none;stroke-opacity:1"
           d="m 459.8562,113.2585 7.4411,-7.5419 -10.5202,1.2555 3.0791,6.2864 z" /></g><g
         transform="translate(40,40)"
         id="g252"><path
           id="path254"
           style="fill:#b0e2ff;fill-opacity:1;fill-rule:nonzero;stroke:#000000;stroke-width:1;stroke-linecap:butt;stroke-linejoin:miter;stroke-miterlimit:10;stroke-dasharray:none;stroke-opacity:1"
           d="m 832.5552,90 c 0,9.94113 -23.805,18 -53.1699,18 -29.3649,0 -53.1698,-8.05887 -53.1698,-18 0,-9.94113 23.8049,-18 53.1698,-18 29.3649,0 53.1699,8.05887 53.1699,18 z" /></g><g
         transform="translate(40,40)"
         id="g256"><text
           id="text258"
           style="font-variant:normal;font-weight:normal;font-size:14px;font-family:Times;-inkscape-font-specification:Times-Roman;writing-mode:lr-tb;fill:#000000;fill-opacity:1;fill-rule:nonzero;stroke:none"
           transform="matrix(1,0,0,-1,745.3663,85.8)"><tspan
             id="tspan260"
             y="0"
             x="0 10.1108 16.323999 20.2132 27.2132 30.7132 35.375198 42.375198 49.375198 56.375198 63.375198">Gelo (1966)</tspan></text>
</g><g
         transform="translate(40,40)"
         id="g262"><path
           id="path264"
           style="fill:none;stroke:#000000;stroke-width:1;stroke-linecap:butt;stroke-linejoin:miter;stroke-miterlimit:10;stroke-dasharray:none;stroke-opacity:1"
           d="m 669.6778,146.0209 c 20.8713,-10.6577 48.4647,-24.748 70.7565,-36.131" /></g><g
         transform="translate(40,40)"
         id="g266"><path
           id="path268"
           style="fill:#000000;fill-opacity:1;fill-rule:nonzero;stroke:#000000;stroke-width:1;stroke-linecap:butt;stroke-linejoin:miter;stroke-miterlimit:10;stroke-dasharray:none;stroke-opacity:1"
           d="m 742.3139,112.8601 7.3143,-7.665 -10.4978,1.4307 3.1835,6.2343 z" /></g><g
         transform="translate(40,40)"
         id="g270"><path
           id="path272"
           style="fill:#b0e2ff;fill-opacity:1;fill-rule:nonzero;stroke:#000000;stroke-width:1;stroke-linecap:butt;stroke-linejoin:miter;stroke-miterlimit:10;stroke-dasharray:none;stroke-opacity:1"
           d="m 342.4622,18 c 0,9.94113 -25.1065,18 -56.0769,18 -30.9704,0 -56.0769,-8.05887 -56.0769,-18 0,-9.941125 25.1065,-18 56.0769,-18 30.9704,0 56.0769,8.058875 56.0769,18 z" /></g><g
         transform="translate(40,40)"
         id="g274"><text
           id="text276"
           style="font-variant:normal;font-weight:normal;font-size:14px;font-family:Times;-inkscape-font-specification:Times-Roman;writing-mode:lr-tb;fill:#000000;fill-opacity:1;fill-rule:nonzero;stroke:none"
           transform="matrix(1,0,0,-1,250.0284,13.8)"><tspan
             id="tspan278"
             y="0"
             x="0 7.7867999 14 21 24.8892 31.8892 35.389198 40.051201 47.051201 54.051201 61.051201 68.051201">Fabio (2008)</tspan></text>
</g><g
         transform="translate(40,40)"
         id="g280"><path
           id="path282"
           style="fill:#b0e2ff;fill-opacity:1;fill-rule:nonzero;stroke:#000000;stroke-width:1;stroke-linecap:butt;stroke-linejoin:miter;stroke-miterlimit:10;stroke-dasharray:none;stroke-opacity:1"
           d="m 270.242,90 c 0,9.94113 -27.6942,18 -61.8567,18 -34.1625,0 -61.8567,-8.05887 -61.8567,-18 0,-9.94113 27.6942,-18 61.8567,-18 34.1625,0 61.8567,8.05887 61.8567,18 z" /></g><g
         transform="translate(40,40)"
         id="g284"><text
           id="text286"
           style="font-variant:normal;font-weight:normal;font-size:14px;font-family:Times;-inkscape-font-specification:Times-Roman;writing-mode:lr-tb;fill:#000000;fill-opacity:1;fill-rule:nonzero;stroke:none"
           transform="matrix(1,0,0,-1,167.3663,85.8)"><tspan
             id="tspan288"
             y="0"
             x="0 5.4488001 12.4488 17.8976 24.1108 35 41.2132 44.7132 49.375198 56.375198 63.375198 70.375198 77.375198">Josema (1968)</tspan></text>
</g><g
         transform="translate(40,40)"
         id="g290"><path
           id="path292"
           style="fill:none;stroke:#000000;stroke-width:1;stroke-linecap:butt;stroke-linejoin:miter;stroke-miterlimit:10;stroke-dasharray:none;stroke-opacity:1"
           d="m 227.2669,72.57081 c 9.9409,-9.1762 22.2833,-20.56914 33.1153,-30.56793" /></g><g
         transform="translate(40,40)"
         id="g294"><path
           id="path296"
           style="fill:#000000;fill-opacity:1;fill-rule:nonzero;stroke:#000000;stroke-width:1;stroke-linecap:butt;stroke-linejoin:miter;stroke-miterlimit:10;stroke-dasharray:none;stroke-opacity:1"
           d="m 262.9727,44.37489 4.974,-9.35465 -9.722,4.21101 4.748,5.14364 z" /></g><g
         transform="translate(40,40)"
         id="g298"><path
           id="path300"
           style="fill:#ffaeb9;fill-opacity:1;fill-rule:nonzero;stroke:#000000;stroke-width:1;stroke-linecap:butt;stroke-linejoin:miter;stroke-miterlimit:10;stroke-dasharray:none;stroke-opacity:1"
           d="m 521.7489,18 c 0,9.94113 -27.4734,18 -61.3636,18 -33.8901,0 -61.3635,-8.05887 -61.3635,-18 0,-9.941125 27.4734,-18 61.3635,-18 33.8902,0 61.3636,8.058875 61.3636,18 z" /></g><g
         transform="translate(40,40)"
         id="g302"><text
           id="text304"
           style="font-variant:normal;font-weight:normal;font-size:14px;font-family:Times;-inkscape-font-specification:Times-Roman;writing-mode:lr-tb;fill:#000000;fill-opacity:1;fill-rule:nonzero;stroke:none"
           transform="matrix(1,0,0,-1,419.7593,13.8)"><tspan
             id="tspan306"
             y="0"
             x="0 12.4488 18.662001 23.323999 27.2132 34.2132 40.426399 43.926399 48.588402 55.588402 62.588402 69.588402 76.588402">Marina (2008)</tspan></text>
</g><g
         transform="translate(40,40)"
         id="g308"><path
           id="path310"
           style="fill:none;stroke:#000000;stroke-width:1;stroke-linecap:butt;stroke-linejoin:miter;stroke-miterlimit:10;stroke-dasharray:none;stroke-opacity:1"
           d="M 252.5687,77.37617 C 295.4403,65.12715 360.5757,46.51703 406.4759,33.40269" /></g><g
         transform="translate(40,40)"
         id="g312"><path
           id="path314"
           style="fill:#000000;fill-opacity:1;fill-rule:nonzero;stroke:#000000;stroke-width:1;stroke-linecap:butt;stroke-linejoin:miter;stroke-miterlimit:10;stroke-dasharray:none;stroke-opacity:1"
           d="m 407.5989,36.72195 8.6537,-6.11261 -10.5768,-0.61806 1.9231,6.73067 z" /></g><g
         transform="translate(40,40)"
         id="g316"><path
           id="path318"
           style="fill:#ffaeb9;fill-opacity:1;fill-rule:nonzero;stroke:#000000;stroke-width:1;stroke-linecap:butt;stroke-linejoin:miter;stroke-miterlimit:10;stroke-dasharray:none;stroke-opacity:1"
           d="m 777.0632,234 c 0,9.9411 -28.9573,18 -64.6779,18 -35.7206,0 -64.6778,-8.0589 -64.6778,-18 0,-9.9411 28.9572,-18 64.6778,-18 35.7206,0 64.6779,8.0589 64.6779,18 z" /></g><g
         transform="translate(40,40)"
         id="g320"><text
           id="text322"
           style="font-variant:normal;font-weight:normal;font-size:14px;font-family:Times;-inkscape-font-specification:Times-Roman;writing-mode:lr-tb;fill:#7f7f7f;fill-opacity:1;fill-rule:nonzero;stroke:none"
           transform="matrix(1,0,0,-1,669.0626,229.8)"><tspan
             id="tspan324"
             y="0"
             x="0 9.2763996 13.1656 17.0548 24.0548 28.716801 32.605999 39.605999 45.819199 49.319199 53.981201 60.981201 67.981201 74.981201 81.981201">Vitorina (1923)</tspan></text>
</g><g
         transform="translate(40,40)"
         id="g326"><path
           id="path328"
           style="fill:none;stroke:#000000;stroke-width:1;stroke-linecap:butt;stroke-linejoin:miter;stroke-miterlimit:10;stroke-dasharray:none;stroke-opacity:1"
           d="M 767.136,224.3436 C 824.0737,214.1077 915.7158,197.0892 994.3853,180 c 5.039,-1.0946 10.2597,-2.2735 15.4907,-3.4855" /></g><g
         transform="translate(40,40)"
         id="g330"><path
           id="path332"
           style="fill:#000000;fill-opacity:1;fill-rule:nonzero;stroke:#000000;stroke-width:1;stroke-linecap:butt;stroke-linejoin:miter;stroke-miterlimit:10;stroke-dasharray:none;stroke-opacity:1"
           d="m 1010.969,179.8531 8.933,-5.6968 -10.536,-1.1173 1.603,6.8141 z" /></g><g
         transform="translate(40,40)"
         id="g334"><path
           id="path336"
           style="fill:none;stroke:#000000;stroke-width:1;stroke-linecap:butt;stroke-linejoin:miter;stroke-miterlimit:10;stroke-dasharray:none;stroke-opacity:1"
           d="m 694.472,216.5708 c -9.2032,-8.9544 -20.5759,-20.0198 -30.6696,-29.8406" /></g><g
         transform="translate(40,40)"
         id="g338"><path
           id="path340"
           style="fill:#000000;fill-opacity:1;fill-rule:nonzero;stroke:#000000;stroke-width:1;stroke-linecap:butt;stroke-linejoin:miter;stroke-miterlimit:10;stroke-dasharray:none;stroke-opacity:1"
           d="m 665.9982,183.9833 -9.608,-4.4651 4.7265,9.4822 4.8815,-5.0171 z" /></g><g
         transform="translate(40,40)"
         id="g342"><path
           id="path344"
           style="fill:none;stroke:#000000;stroke-width:1;stroke-linecap:butt;stroke-linejoin:miter;stroke-miterlimit:10;stroke-dasharray:none;stroke-opacity:1"
           d="M 671.0642,220.0323 C 635.8596,208.1322 585.2159,191.0131 548.0546,178.4516" /></g><g
         transform="translate(40,40)"
         id="g346"><path
           id="path348"
           style="fill:#000000;fill-opacity:1;fill-rule:nonzero;stroke:#000000;stroke-width:1;stroke-linecap:butt;stroke-linejoin:miter;stroke-miterlimit:10;stroke-dasharray:none;stroke-opacity:1"
           d="m 549.0301,175.0868 -10.5942,0.1134 8.3525,6.518 2.2417,-6.6314 z" /></g><g
         transform="translate(40,40)"
         id="g350"><path
           id="path352"
           style="fill:#ffaeb9;fill-opacity:1;fill-rule:nonzero;stroke:#000000;stroke-width:1;stroke-linecap:butt;stroke-linejoin:miter;stroke-miterlimit:10;stroke-dasharray:none;stroke-opacity:1"
           d="m 371.9518,234 c 0,9.9411 -24.878,18 -55.5665,18 -30.6885,0 -55.5664,-8.0589 -55.5664,-18 0,-9.9411 24.8779,-18 55.5664,-18 30.6885,0 55.5665,8.0589 55.5665,18 z" /></g><g
         transform="translate(40,40)"
         id="g354"><text
           id="text356"
           style="font-variant:normal;font-weight:normal;font-size:14px;font-family:Times;-inkscape-font-specification:Times-Roman;writing-mode:lr-tb;fill:#7f7f7f;fill-opacity:1;fill-rule:nonzero;stroke:none"
           transform="scale(1,-1)"
           x="254.82822"
           y="-229.8"><tspan
             id="tspan358"
             x="279.7034">Daría (1920)</tspan></text>
</g><g
         transform="translate(40,40)"
         id="g360"><path
           id="path362"
           style="fill:none;stroke:#000000;stroke-width:1;stroke-linecap:butt;stroke-linejoin:miter;stroke-miterlimit:10;stroke-dasharray:none;stroke-opacity:1"
           d="M 274.7083,221.9488 C 232.7893,209.8277 167.9443,191.0773 121.949,177.7775" /></g><g
         transform="translate(40,40)"
         id="g364"><path
           id="path366"
           style="fill:#000000;fill-opacity:1;fill-rule:nonzero;stroke:#000000;stroke-width:1;stroke-linecap:butt;stroke-linejoin:miter;stroke-miterlimit:10;stroke-dasharray:none;stroke-opacity:1"
           d="m 122.724,174.3582 -10.5787,0.5844 8.6342,6.1401 1.9445,-6.7245 z" /></g><g
         transform="translate(40,40)"
         id="g368"><path
           id="path370"
           style="fill:none;stroke:#000000;stroke-width:1;stroke-linecap:butt;stroke-linejoin:miter;stroke-miterlimit:10;stroke-dasharray:none;stroke-opacity:1"
           d="m 325.2842,216.2022 c 4.1106,-8.2212 9.0806,-18.1612 13.636,-27.2721" /></g><g
         transform="translate(40,40)"
         id="g372"><path
           id="path374"
           style="fill:#000000;fill-opacity:1;fill-rule:nonzero;stroke:#000000;stroke-width:1;stroke-linecap:butt;stroke-linejoin:miter;stroke-miterlimit:10;stroke-dasharray:none;stroke-opacity:1"
           d="m 342.1224,190.3521 1.3416,-10.5096 -7.6026,7.3791 6.261,3.1305 z" /></g><g
         transform="translate(40,40)"
         id="g376"><path
           id="path378"
           style="fill:#ffaeb9;fill-opacity:1;fill-rule:nonzero;stroke:#000000;stroke-width:1;stroke-linecap:butt;stroke-linejoin:miter;stroke-miterlimit:10;stroke-dasharray:none;stroke-opacity:1"
           d="m 268.3125,162 c 0,9.9411 -26.8303,18 -59.9272,18 -33.0969,0 -59.9272,-8.0589 -59.9272,-18 0,-9.9411 26.8303,-18 59.9272,-18 33.0969,0 59.9272,8.0589 59.9272,18 z" /></g><g
         transform="translate(40,40)"
         id="g380"><text
           id="text382"
           style="font-variant:normal;font-weight:normal;font-size:14px;font-family:Times;-inkscape-font-specification:Times-Roman;writing-mode:lr-tb;fill:#000000;fill-opacity:1;fill-rule:nonzero;stroke:none"
           transform="matrix(1,0,0,-1,168.9215,157.8)"><tspan
             id="tspan384"
             y="0"
             x="0 4.6620002 10.1108 17.1108 21 24.8892 31.8892 38.102402 41.602402 46.2644 53.2644 60.2644 67.264397 74.264397">Isolina (1932)</tspan></text>
</g><g
         transform="translate(40,40)"
         id="g386"><path
           id="path388"
           style="fill:none;stroke:#000000;stroke-width:1;stroke-linecap:butt;stroke-linejoin:miter;stroke-miterlimit:10;stroke-dasharray:none;stroke-opacity:1"
           d="m 177.4937,146.5542 c -21.0636,-10.5318 -49.1864,-24.5932 -72.1199,-36.06" /></g><g
         transform="translate(40,40)"
         id="g390"><path
           id="path392"
           style="fill:#000000;fill-opacity:1;fill-rule:nonzero;stroke:#000000;stroke-width:1;stroke-linecap:butt;stroke-linejoin:miter;stroke-miterlimit:10;stroke-dasharray:none;stroke-opacity:1"
           d="m 106.7317,107.2601 -10.50953,-1.3417 7.37903,7.6027 3.1305,-6.261 z" /></g><g
         transform="translate(40,40)"
         id="g394"><path
           id="path396"
           style="fill:#ffaeb9;fill-opacity:1;fill-rule:nonzero;stroke:#000000;stroke-width:1;stroke-linecap:butt;stroke-linejoin:miter;stroke-miterlimit:10;stroke-dasharray:none;stroke-opacity:1"
           d="m 839.0675,162 c 0,9.9411 -26.2729,18 -58.6822,18 -32.4093,0 -58.6822,-8.0589 -58.6822,-18 0,-9.9411 26.2729,-18 58.6822,-18 32.4093,0 58.6822,8.0589 58.6822,18 z" /></g><g
         transform="translate(40,40)"
         id="g398"><text
           id="text400"
           style="font-variant:normal;font-weight:normal;font-size:14px;font-family:Times;-inkscape-font-specification:Times-Roman;writing-mode:lr-tb;fill:#000000;fill-opacity:1;fill-rule:nonzero;stroke:none"
           transform="matrix(1,0,0,-1,741.8101,157.8)"><tspan
             id="tspan402"
             y="0"
             x="0 7.5739999 13.7872 18.4492 24.662399 30.1112 36.324402 39.824402 44.486401 51.486401 58.486401 65.486397 72.486397">Teresa (1940)</tspan></text>
</g><g
         transform="translate(40,40)"
         id="g404"><path
           id="path406"
           style="fill:none;stroke:#000000;stroke-width:1;stroke-linecap:butt;stroke-linejoin:miter;stroke-miterlimit:10;stroke-dasharray:none;stroke-opacity:1"
           d="m 780.133,143.8314 c -0.107,-7.7004 -0.2341,-16.8571 -0.353,-25.4148" /></g><g
         transform="translate(40,40)"
         id="g408"><path
           id="path410"
           style="fill:#000000;fill-opacity:1;fill-rule:nonzero;stroke:#000000;stroke-width:1;stroke-linecap:butt;stroke-linejoin:miter;stroke-miterlimit:10;stroke-dasharray:none;stroke-opacity:1"
           d="m 783.2797,118.3637 -3.6386,-9.9504 -3.3607,10.0476 6.9993,-0.0972 z" /></g><g
         transform="translate(40,40)"
         id="g412"><path
           id="path414"
           style="fill:#ffaeb9;fill-opacity:1;fill-rule:nonzero;stroke:#000000;stroke-width:1;stroke-linecap:butt;stroke-linejoin:miter;stroke-miterlimit:10;stroke-dasharray:none;stroke-opacity:1"
           d="m 985.163,162 c 0,9.9411 -28.5542,18 -63.7777,18 -35.2234,0 -63.7777,-8.0589 -63.7777,-18 0,-9.9411 28.5543,-18 63.7777,-18 35.2235,0 63.7777,8.0589 63.7777,18 z" /></g><g
         transform="translate(40,40)"
         id="g416"><text
           id="text418"
           style="font-variant:normal;font-weight:normal;font-size:14px;font-family:Times;-inkscape-font-specification:Times-Roman;writing-mode:lr-tb;fill:#000000;fill-opacity:1;fill-rule:nonzero;stroke:none"
           transform="matrix(1,0,0,-1,878.8145,157.8)"><tspan
             id="tspan420"
             y="0"
             x="0 9.3380003 15.5512 20.2132 31.1024 37.315601 44.315601 47.815601 52.4776 59.4776 66.4776 73.4776 80.4776">Carmen (1941)</tspan></text>
</g><g
         transform="translate(40,40)"
         id="g422"><path
           id="path424"
           style="fill:none;stroke:#000000;stroke-width:1;stroke-linecap:butt;stroke-linejoin:miter;stroke-miterlimit:10;stroke-dasharray:none;stroke-opacity:1"
           d="m 947.5392,145.4817 c 16.0098,-10.1114 36.6654,-23.157 53.9248,-34.0575" /></g><g
         transform="translate(40,40)"
         id="g426"><path
           id="path428"
           style="fill:#000000;fill-opacity:1;fill-rule:nonzero;stroke:#000000;stroke-width:1;stroke-linecap:butt;stroke-linejoin:miter;stroke-miterlimit:10;stroke-dasharray:none;stroke-opacity:1"
           d="m 1003.551,114.2455 6.586,-8.2992 -10.3239,2.3808 3.7379,5.9184 z" /></g><g
         transform="translate(40,40)"
         id="g430"><path
           id="path432"
           style="fill:none;stroke:#000000;stroke-width:1;stroke-linecap:butt;stroke-linejoin:miter;stroke-miterlimit:10;stroke-dasharray:none;stroke-opacity:1"
           d="m 965.126,148.8778 c 40.891,-12.2673 101.954,-30.5863 145.09,-43.527" /></g><g
         transform="translate(40,40)"
         id="g434"><path
           id="path436"
           style="fill:#000000;fill-opacity:1;fill-rule:nonzero;stroke:#000000;stroke-width:1;stroke-linecap:butt;stroke-linejoin:miter;stroke-miterlimit:10;stroke-dasharray:none;stroke-opacity:1"
           d="m 1111.379,108.656 8.573,-6.2259 -10.584,-0.4789 2.011,6.7048 z" /></g><g
         transform="translate(40,40)"
         id="g438"><path
           id="path440"
           style="fill:none;stroke:#000000;stroke-width:1;stroke-linecap:butt;stroke-linejoin:miter;stroke-miterlimit:10;stroke-dasharray:none;stroke-opacity:1"
           d="m 919.1142,143.8314 c -0.9625,-7.7004 -2.1071,-16.8571 -3.1768,-25.4148" /></g><g
         transform="translate(40,40)"
         id="g442"><path
           id="path444"
           style="fill:#000000;fill-opacity:1;fill-rule:nonzero;stroke:#000000;stroke-width:1;stroke-linecap:butt;stroke-linejoin:miter;stroke-miterlimit:10;stroke-dasharray:none;stroke-opacity:1"
           d="m 919.4004,117.9019 -4.7134,-9.4886 -2.2326,10.3569 6.946,-0.8683 z" /></g><g
         transform="translate(40,40)"
         id="g446"><path
           id="path448"
           style="fill:none;stroke:#000000;stroke-width:1;stroke-linecap:butt;stroke-linejoin:miter;stroke-miterlimit:10;stroke-dasharray:none;stroke-opacity:1"
           d="m 530.1361,146.7307 c 21.5032,-10.6775 50.4393,-25.0458 73.8098,-36.6504" /></g><g
         transform="translate(40,40)"
         id="g450"><path
           id="path452"
           style="fill:#000000;fill-opacity:1;fill-rule:nonzero;stroke:#000000;stroke-width:1;stroke-linecap:butt;stroke-linejoin:miter;stroke-miterlimit:10;stroke-dasharray:none;stroke-opacity:1"
           d="m 605.5281,113.2024 7.4,-7.5822 -10.5133,1.3126 3.1133,6.2696 z" /></g><g
         transform="translate(40,40)"
         id="g454"><path
           id="path456"
           style="fill:none;stroke:#000000;stroke-width:1;stroke-linecap:butt;stroke-linejoin:miter;stroke-miterlimit:10;stroke-dasharray:none;stroke-opacity:1"
           d="M 468.5693,146.9064 C 446.7925,136.2402 417.3654,121.827 393.5761,110.1751" /></g><g
         transform="translate(40,40)"
         id="g458"><path
           id="path460"
           style="fill:#000000;fill-opacity:1;fill-rule:nonzero;stroke:#000000;stroke-width:1;stroke-linecap:butt;stroke-linejoin:miter;stroke-miterlimit:10;stroke-dasharray:none;stroke-opacity:1"
           d="m 394.9517,106.9516 -10.5202,-1.2555 7.4411,7.542 3.0791,-6.2865 z" /></g><g
         transform="translate(40,40)"
         id="g462"><path
           id="path464"
           style="fill:none;stroke:#000000;stroke-width:1;stroke-linecap:butt;stroke-linejoin:miter;stroke-miterlimit:10;stroke-dasharray:none;stroke-opacity:1"
           d="m 499.3853,143.8314 c 0,-7.7004 0,-16.8571 0,-25.4148" /></g><g
         transform="translate(40,40)"
         id="g466"><path
           id="path468"
           style="fill:#000000;fill-opacity:1;fill-rule:nonzero;stroke:#000000;stroke-width:1;stroke-linecap:butt;stroke-linejoin:miter;stroke-miterlimit:10;stroke-dasharray:none;stroke-opacity:1"
           d="m 502.8854,118.4132 -3.5001,-9.9999 -3.4999,10 7,-1e-4 z" /></g><g
         transform="translate(40,40)"
         id="g470"><path
           id="path472"
           style="fill:none;stroke:#000000;stroke-width:1;stroke-linecap:butt;stroke-linejoin:miter;stroke-miterlimit:10;stroke-dasharray:none;stroke-opacity:1"
           d="M 458.3168,76.11768 C 423.0275,64.1889 372.0893,46.97036 334.8178,34.37155" /></g><g
         transform="translate(40,40)"
         id="g474"><path
           id="path476"
           style="fill:#000000;fill-opacity:1;fill-rule:nonzero;stroke:#000000;stroke-width:1;stroke-linecap:butt;stroke-linejoin:miter;stroke-miterlimit:10;stroke-dasharray:none;stroke-opacity:1"
           d="m 335.7684,30.99839 -10.5942,0.11335 8.3526,6.51804 2.2416,-6.63139 z" /></g><g
         transform="translate(40,40)"
         id="g478"><path
           id="path480"
           style="fill:none;stroke:#000000;stroke-width:1;stroke-linecap:butt;stroke-linejoin:miter;stroke-miterlimit:10;stroke-dasharray:none;stroke-opacity:1"
           d="M 489.7449,72.20224 C 485.2448,63.89445 479.7941,53.83159 474.8168,44.64271" /></g><g
         transform="translate(40,40)"
         id="g482"><path
           id="path484"
           style="fill:#000000;fill-opacity:1;fill-rule:nonzero;stroke:#000000;stroke-width:1;stroke-linecap:butt;stroke-linejoin:miter;stroke-miterlimit:10;stroke-dasharray:none;stroke-opacity:1"
           d="m 477.8904,42.96847 -7.8404,-7.12592 1.6854,10.45994 6.155,-3.33402 z" /></g></g></g></svg>