<?xml version="1.0" encoding="UTF-8" standalone="no"?>
<svg
   xmlns:dc="http://purl.org/dc/elements/1.1/"
   xmlns:cc="http://creativecommons.org/ns#"
   xmlns:rdf="http://www.w3.org/1999/02/22-rdf-syntax-ns#"
   xmlns:svg="http://www.w3.org/2000/svg"
   xmlns="http://www.w3.org/2000/svg"
   viewBox="0 0 716.25 18.16625"
   height="18.16625"
   width="716.25"
   xml:space="preserve"
   version="1.1"
   id="svg2"><metadata
     id="metadata8"><rdf:RDF><cc:Work
         rdf:about=""><dc:format>image/svg+xml</dc:format><dc:type
           rdf:resource="http://purl.org/dc/dcmitype/StillImage" /><dc:title></dc:title></cc:Work></rdf:RDF></metadata><defs
     id="defs6" /><g
     transform="matrix(1.25,0,0,-1.25,0,18.16625)"
     id="g10"><g
       id="g12"><path
         id="path14"
         style="fill:#000000;fill-opacity:1;fill-rule:nonzero;stroke:none"
         d="m 10.281,14.506 3.828,0 0,-1.047 -2.578,0 0,-11.735 2.578,0 0,-1.046 -3.828,0 0,13.828 z" /><path
         id="path16"
         style="fill:#000000;fill-opacity:1;fill-rule:nonzero;stroke:none"
         d="m 26.578,3.318 0,6.313 -1.562,0 0,1.109 1.562,0 0,0.672 c 0,0.57 0.078,1.047 0.234,1.422 0.165,0.383 0.379,0.691 0.641,0.922 0.258,0.238 0.563,0.406 0.906,0.5 0.344,0.101 0.707,0.156 1.094,0.156 0.383,0 0.77,-0.047 1.156,-0.141 0.395,-0.086 0.766,-0.183 1.11,-0.297 l -0.25,-1.14 c -0.231,0.125 -0.524,0.226 -0.875,0.312 -0.356,0.082 -0.715,0.125 -1.078,0.125 -0.219,0 -0.43,-0.031 -0.625,-0.093 -0.2,-0.055 -0.375,-0.153 -0.532,-0.297 -0.148,-0.149 -0.261,-0.34 -0.343,-0.578 C 27.93,12.06 27.891,11.76 27.891,11.396 l 0,-0.656 2.984,0 0,-1.109 -2.984,0 0,-6.313 -1.313,0 z" /><path
         id="path18"
         style="fill:#000000;fill-opacity:1;fill-rule:nonzero;stroke:none"
         d="m 38.141,13.568 c -0.993,-0.762 -1.746,-1.648 -2.266,-2.656 -0.523,-1 -0.781,-2.094 -0.781,-3.281 0,-0.594 0.054,-1.157 0.172,-1.688 C 35.391,5.412 35.578,4.9 35.828,4.412 36.078,3.92 36.395,3.447 36.781,2.99 37.176,2.521 37.641,2.06 38.172,1.599 L 37.453,0.646 c -1.23,0.907 -2.148,1.961 -2.75,3.157 -0.594,1.195 -0.891,2.46 -0.891,3.796 0,1.321 0.301,2.586 0.907,3.797 0.601,1.207 1.515,2.254 2.734,3.141 l 0.703,-0.969 -0.015,0 z" /><path
         id="path20"
         style="fill:#000000;fill-opacity:1;fill-rule:nonzero;stroke:none"
         d="m 44.141,10.912 c 1,0 1.769,-0.313 2.312,-0.938 0.551,-0.617 0.828,-1.558 0.828,-2.828 l 0,-0.468 -5.312,0 c 0.051,-0.774 0.301,-1.356 0.75,-1.75 0.457,-0.399 1.097,-0.594 1.922,-0.594 0.468,0 0.867,0.035 1.203,0.109 0.332,0.07 0.582,0.149 0.75,0.235 L 46.766,3.553 C 46.609,3.467 46.32,3.381 45.906,3.287 45.488,3.193 45.02,3.146 44.5,3.146 c -0.648,0 -1.215,0.102 -1.703,0.297 -0.481,0.195 -0.883,0.461 -1.203,0.797 -0.313,0.344 -0.555,0.75 -0.719,1.219 -0.156,0.476 -0.234,1 -0.234,1.562 0,0.657 0.097,1.227 0.297,1.719 0.207,0.488 0.472,0.895 0.796,1.219 0.332,0.32 0.707,0.562 1.125,0.719 0.414,0.156 0.844,0.234 1.282,0.234 z m 1.797,-3.156 c 0,0.625 -0.168,1.117 -0.5,1.484 -0.336,0.375 -0.774,0.563 -1.313,0.563 -0.313,0 -0.594,-0.063 -0.844,-0.188 C 43.031,9.498 42.816,9.342 42.641,9.146 42.461,8.959 42.316,8.74 42.203,8.49 42.098,8.248 42.031,8.006 42,7.756 l 3.938,0 z" /><path
         id="path22"
         style="fill:#000000;fill-opacity:1;fill-rule:nonzero;stroke:none"
         d="m 49.844,1.599 c 0.988,0.774 1.742,1.657 2.265,2.657 0.532,1.007 0.797,2.101 0.797,3.281 0,0.601 -0.062,1.172 -0.187,1.703 -0.117,0.531 -0.305,1.039 -0.563,1.531 -0.25,0.489 -0.574,0.961 -0.968,1.422 -0.387,0.457 -0.844,0.914 -1.376,1.375 l 0.719,0.969 c 1.227,-0.906 2.141,-1.965 2.735,-3.172 C 53.867,10.166 54.172,8.9 54.172,7.568 54.172,6.912 54.094,6.26 53.938,5.615 53.789,4.978 53.562,4.365 53.25,3.771 52.945,3.178 52.566,2.623 52.109,2.099 51.66,1.568 51.133,1.084 50.531,0.646 l -0.703,0.953 0.016,0 z" /><path
         id="path24"
         style="fill:#008080;fill-opacity:1;fill-rule:nonzero;stroke:none"
         d="m 66.219,3.318 0,5.891 -1.641,0 0,1.625 1.641,0 0,0.437 c 0,0.602 0.086,1.102 0.265,1.5 0.176,0.407 0.411,0.727 0.704,0.969 0.3,0.238 0.644,0.41 1.031,0.516 0.383,0.101 0.781,0.156 1.187,0.156 0.414,0 0.844,-0.043 1.282,-0.125 0.437,-0.074 0.832,-0.195 1.187,-0.359 l -0.344,-1.594 c -0.242,0.082 -0.547,0.164 -0.922,0.25 -0.367,0.094 -0.714,0.14 -1.047,0.14 -0.179,0 -0.351,-0.015 -0.515,-0.046 -0.168,-0.032 -0.313,-0.106 -0.438,-0.219 -0.117,-0.106 -0.214,-0.258 -0.297,-0.453 -0.074,-0.188 -0.109,-0.446 -0.109,-0.766 l 0,-0.406 3.094,0 0,-1.625 -3.094,0 0,-5.891 -1.984,0 z" /><path
         id="path26"
         style="fill:#008080;fill-opacity:1;fill-rule:nonzero;stroke:none"
         d="m 79.547,7.099 c 0,-0.605 -0.086,-1.152 -0.25,-1.64 C 79.129,4.978 78.891,4.56 78.578,4.209 78.266,3.865 77.891,3.592 77.453,3.396 77.023,3.209 76.547,3.115 76.016,3.115 c -0.532,0 -1.016,0.094 -1.454,0.281 -0.429,0.196 -0.804,0.469 -1.124,0.813 -0.313,0.351 -0.555,0.769 -0.719,1.25 -0.168,0.488 -0.25,1.035 -0.25,1.64 0,0.582 0.082,1.114 0.25,1.594 0.176,0.488 0.422,0.906 0.734,1.25 0.32,0.352 0.703,0.625 1.141,0.813 0.437,0.187 0.91,0.281 1.422,0.281 0.519,0 0.992,-0.094 1.422,-0.281 0.437,-0.188 0.812,-0.461 1.124,-0.813 0.321,-0.344 0.567,-0.762 0.735,-1.25 0.164,-0.48 0.25,-1.012 0.25,-1.594 z M 74.469,7.084 c 0,-0.68 0.117,-1.227 0.359,-1.641 0.238,-0.418 0.625,-0.625 1.156,-0.625 0.508,0 0.895,0.207 1.157,0.625 0.257,0.414 0.39,0.961 0.39,1.641 0,0.664 -0.121,1.203 -0.359,1.609 -0.242,0.414 -0.625,0.625 -1.156,0.625 -0.512,0 -0.899,-0.211 -1.157,-0.625 -0.261,-0.406 -0.39,-0.945 -0.39,-1.609 z" /><path
         id="path28"
         style="fill:#008080;fill-opacity:1;fill-rule:nonzero;stroke:none"
         d="M 86.984,8.834 C 86.859,8.865 86.707,8.896 86.531,8.928 86.352,8.959 86.176,8.99 86,9.021 85.82,9.053 85.645,9.072 85.469,9.084 85.301,9.092 85.16,9.099 85.047,9.099 84.766,9.099 84.488,9.084 84.219,9.053 83.957,9.029 83.688,8.978 83.406,8.896 l 0,-5.578 -1.984,0 0,7.031 c 0.519,0.188 1.055,0.336 1.609,0.454 0.551,0.113 1.192,0.171 1.922,0.171 0.113,0 0.27,-0.007 0.469,-0.015 0.195,-0.012 0.406,-0.031 0.625,-0.063 0.226,-0.023 0.457,-0.054 0.687,-0.093 0.227,-0.032 0.43,-0.079 0.61,-0.141 l -0.36,-1.828 z" /><path
         id="path30"
         style="fill:#000000;fill-opacity:1;fill-rule:nonzero;stroke:none"
         d="m 100.141,10.912 c 1,0 1.769,-0.313 2.312,-0.938 0.551,-0.617 0.828,-1.558 0.828,-2.828 l 0,-0.468 -5.312,0 c 0.051,-0.774 0.301,-1.356 0.75,-1.75 0.457,-0.399 1.097,-0.594 1.922,-0.594 0.468,0 0.867,0.035 1.203,0.109 0.332,0.07 0.582,0.149 0.75,0.235 l 0.172,-1.125 C 102.609,3.467 102.32,3.381 101.906,3.287 101.488,3.193 101.02,3.146 100.5,3.146 c -0.648,0 -1.215,0.102 -1.703,0.297 -0.481,0.195 -0.883,0.461 -1.203,0.797 -0.313,0.344 -0.555,0.75 -0.719,1.219 -0.156,0.476 -0.234,1 -0.234,1.562 0,0.657 0.097,1.227 0.297,1.719 0.207,0.488 0.472,0.895 0.796,1.219 0.332,0.32 0.707,0.562 1.125,0.719 0.414,0.156 0.844,0.234 1.282,0.234 z m 1.797,-3.156 c 0,0.625 -0.168,1.117 -0.5,1.484 -0.336,0.375 -0.774,0.563 -1.313,0.563 -0.313,0 -0.594,-0.063 -0.844,-0.188 C 99.031,9.498 98.816,9.342 98.641,9.146 98.461,8.959 98.316,8.74 98.203,8.49 98.098,8.248 98.031,8.006 98,7.756 l 3.938,0 z" /><path
         id="path32"
         style="fill:#008080;fill-opacity:1;fill-rule:nonzero;stroke:none"
         d="m 116.547,13.006 c 0,-0.387 -0.125,-0.696 -0.375,-0.922 -0.242,-0.219 -0.531,-0.328 -0.875,-0.328 -0.344,0 -0.637,0.109 -0.875,0.328 -0.242,0.226 -0.36,0.535 -0.36,0.922 0,0.382 0.118,0.687 0.36,0.906 0.238,0.226 0.531,0.344 0.875,0.344 0.344,0 0.633,-0.118 0.875,-0.344 0.25,-0.219 0.375,-0.524 0.375,-0.906 z m 2.922,-9.375 c -0.407,-0.188 -0.789,-0.313 -1.141,-0.375 -0.355,-0.071 -0.683,-0.11 -0.984,-0.11 -0.512,0 -0.946,0.074 -1.297,0.219 -0.344,0.145 -0.621,0.359 -0.828,0.641 -0.211,0.289 -0.356,0.64 -0.438,1.047 -0.086,0.406 -0.125,0.867 -0.125,1.39 l 0,2.766 -2.078,0 0,1.625 4.047,0 0,-4.656 c 0,-0.45 0.082,-0.782 0.25,-1 0.164,-0.219 0.441,-0.329 0.828,-0.329 0.176,0 0.391,0.024 0.641,0.079 0.258,0.05 0.551,0.148 0.875,0.296 l 0.25,-1.593 z" /><path
         id="path34"
         style="fill:#008080;fill-opacity:1;fill-rule:nonzero;stroke:none"
         d="m 121.016,10.599 c 0.343,0.094 0.773,0.18 1.296,0.266 0.52,0.094 1.083,0.141 1.688,0.141 0.594,0 1.086,-0.086 1.484,-0.25 0.395,-0.168 0.707,-0.407 0.938,-0.719 0.226,-0.305 0.39,-0.664 0.484,-1.078 0.102,-0.418 0.156,-0.887 0.156,-1.406 l 0,-4.235 -1.968,0 0,3.985 c 0,0.707 -0.086,1.21 -0.25,1.515 -0.156,0.313 -0.481,0.469 -0.969,0.469 -0.156,0 -0.309,-0.008 -0.453,-0.016 -0.137,-0.011 -0.289,-0.027 -0.453,-0.047 l 0,-5.906 -1.953,0 0,7.281 z" /><path
         id="path36"
         style="fill:#000000;fill-opacity:1;fill-rule:nonzero;stroke:none"
         d="m 138.281,14.506 3.828,0 0,-1.047 -2.578,0 0,-11.735 2.578,0 0,-1.046 -3.828,0 0,13.828 z" /><path
         id="path38"
         style="fill:#000000;fill-opacity:1;fill-rule:nonzero;stroke:none"
         d="m 148.141,10.912 c 1,0 1.769,-0.313 2.312,-0.938 0.551,-0.617 0.828,-1.558 0.828,-2.828 l 0,-0.468 -5.312,0 c 0.051,-0.774 0.301,-1.356 0.75,-1.75 0.457,-0.399 1.097,-0.594 1.922,-0.594 0.468,0 0.867,0.035 1.203,0.109 0.332,0.07 0.582,0.149 0.75,0.235 l 0.172,-1.125 C 150.609,3.467 150.32,3.381 149.906,3.287 149.488,3.193 149.02,3.146 148.5,3.146 c -0.648,0 -1.215,0.102 -1.703,0.297 -0.481,0.195 -0.883,0.461 -1.203,0.797 -0.313,0.344 -0.555,0.75 -0.719,1.219 -0.156,0.476 -0.234,1 -0.234,1.562 0,0.657 0.097,1.227 0.297,1.719 0.207,0.488 0.472,0.895 0.796,1.219 0.332,0.32 0.707,0.562 1.125,0.719 0.414,0.156 0.844,0.234 1.282,0.234 z m 1.797,-3.156 c 0,0.625 -0.168,1.117 -0.5,1.484 -0.336,0.375 -0.774,0.563 -1.313,0.563 -0.313,0 -0.594,-0.063 -0.844,-0.188 -0.25,-0.117 -0.465,-0.273 -0.64,-0.469 C 146.461,8.959 146.316,8.74 146.203,8.49 146.098,8.248 146.031,8.006 146,7.756 l 3.938,0 z" /><path
         id="path40"
         style="fill:#000000;fill-opacity:1;fill-rule:nonzero;stroke:none"
         d="m 152.672,4.541 c 0.312,0.113 0.609,0.258 0.89,0.437 0.29,0.188 0.555,0.426 0.797,0.719 l 0.532,0 0,-4.953 1.047,0 0,-0.625 -3,0 0,0.625 1.218,0 0,3.906 C 154.082,4.595 154,4.533 153.906,4.463 153.812,4.4 153.707,4.338 153.594,4.275 153.488,4.22 153.375,4.17 153.25,4.119 153.133,4.064 153.02,4.017 152.906,3.978 l -0.234,0.563 z" /><path
         id="path42"
         style="fill:#000000;fill-opacity:1;fill-rule:nonzero;stroke:none"
         d="m 158.891,2.053 c 0.187,0.042 0.375,0.085 0.562,0.125 0.188,0.042 0.359,0.105 0.516,0.187 0.164,0.086 0.312,0.188 0.437,0.313 0.125,0.117 0.223,0.281 0.297,0.5 -0.336,0.031 -0.578,0.16 -0.734,0.39 -0.157,0.227 -0.235,0.453 -0.235,0.672 0,0.426 0.118,0.75 0.36,0.969 0.238,0.219 0.515,0.328 0.828,0.328 0.394,0 0.691,-0.141 0.89,-0.422 0.196,-0.281 0.297,-0.625 0.297,-1.031 0,-0.313 -0.062,-0.637 -0.187,-0.969 -0.117,-0.332 -0.297,-0.645 -0.547,-0.937 -0.25,-0.29 -0.563,-0.54 -0.937,-0.75 -0.376,-0.208 -0.821,-0.344 -1.329,-0.407 l -0.218,1.032 z" /><path
         id="path44"
         style="fill:#000000;fill-opacity:1;fill-rule:nonzero;stroke:none"
         d="m 176.641,10.912 c 1,0 1.769,-0.313 2.312,-0.938 0.551,-0.617 0.828,-1.558 0.828,-2.828 l 0,-0.468 -5.312,0 c 0.051,-0.774 0.301,-1.356 0.75,-1.75 0.457,-0.399 1.097,-0.594 1.922,-0.594 0.468,0 0.867,0.035 1.203,0.109 0.332,0.07 0.582,0.149 0.75,0.235 l 0.172,-1.125 C 179.109,3.467 178.82,3.381 178.406,3.287 177.988,3.193 177.52,3.146 177,3.146 c -0.648,0 -1.215,0.102 -1.703,0.297 -0.481,0.195 -0.883,0.461 -1.203,0.797 -0.313,0.344 -0.555,0.75 -0.719,1.219 -0.156,0.476 -0.234,1 -0.234,1.562 0,0.657 0.097,1.227 0.297,1.719 0.207,0.488 0.472,0.895 0.796,1.219 0.332,0.32 0.707,0.562 1.125,0.719 0.414,0.156 0.844,0.234 1.282,0.234 z m 1.797,-3.156 c 0,0.625 -0.168,1.117 -0.5,1.484 -0.336,0.375 -0.774,0.563 -1.313,0.563 -0.313,0 -0.594,-0.063 -0.844,-0.188 -0.25,-0.117 -0.465,-0.273 -0.64,-0.469 C 174.961,8.959 174.816,8.74 174.703,8.49 174.598,8.248 174.531,8.006 174.5,7.756 l 3.938,0 z" /><path
         id="path46"
         style="fill:#000000;fill-opacity:1;fill-rule:nonzero;stroke:none"
         d="m 184.281,4.275 c 0,-0.199 -0.039,-0.387 -0.109,-0.562 C 184.098,3.533 184,3.357 183.875,3.181 183.75,3.002 183.609,2.83 183.453,2.666 183.297,2.498 183.133,2.33 182.969,2.166 182.883,2.08 182.781,1.97 182.656,1.838 182.539,1.713 182.426,1.58 182.312,1.447 182.207,1.322 182.117,1.197 182.047,1.072 181.973,0.947 181.938,0.838 181.938,0.744 l 2.562,0 0,-0.625 -3.375,0 c 0,0.031 0,0.062 0,0.094 0,0.031 0,0.062 0,0.093 0,0.25 0.039,0.485 0.125,0.704 0.082,0.218 0.188,0.421 0.312,0.609 0.133,0.195 0.286,0.379 0.454,0.547 0.164,0.164 0.328,0.332 0.484,0.5 0.133,0.133 0.266,0.265 0.391,0.39 0.125,0.125 0.234,0.25 0.328,0.375 0.093,0.125 0.164,0.254 0.219,0.391 0.062,0.133 0.093,0.273 0.093,0.422 0,0.156 -0.027,0.289 -0.078,0.406 -0.055,0.113 -0.125,0.207 -0.219,0.281 -0.086,0.082 -0.183,0.141 -0.296,0.172 -0.118,0.039 -0.243,0.063 -0.376,0.063 -0.148,0 -0.289,-0.028 -0.421,-0.078 -0.125,-0.043 -0.243,-0.094 -0.344,-0.157 -0.094,-0.054 -0.18,-0.109 -0.25,-0.171 -0.074,-0.055 -0.133,-0.094 -0.172,-0.125 l -0.359,0.515 c 0.039,0.051 0.109,0.113 0.203,0.188 0.101,0.082 0.222,0.156 0.359,0.218 0.133,0.071 0.285,0.133 0.453,0.188 0.164,0.051 0.344,0.078 0.531,0.078 0.583,0 1.016,-0.137 1.297,-0.406 0.282,-0.274 0.422,-0.653 0.422,-1.141 z" /><path
         id="path48"
         style="fill:#000000;fill-opacity:1;fill-rule:nonzero;stroke:none"
         d="m 187.391,2.053 c 0.187,0.042 0.375,0.085 0.562,0.125 0.188,0.042 0.359,0.105 0.516,0.187 0.164,0.086 0.312,0.188 0.437,0.313 0.125,0.117 0.223,0.281 0.297,0.5 -0.336,0.031 -0.578,0.16 -0.734,0.39 -0.157,0.227 -0.235,0.453 -0.235,0.672 0,0.426 0.118,0.75 0.36,0.969 0.238,0.219 0.515,0.328 0.828,0.328 0.394,0 0.691,-0.141 0.89,-0.422 0.196,-0.281 0.297,-0.625 0.297,-1.031 0,-0.313 -0.062,-0.637 -0.187,-0.969 -0.117,-0.332 -0.297,-0.645 -0.547,-0.937 -0.25,-0.29 -0.563,-0.54 -0.937,-0.75 -0.376,-0.208 -0.821,-0.344 -1.329,-0.407 l -0.218,1.032 z" /><path
         id="path50"
         style="fill:#000000;fill-opacity:1;fill-rule:nonzero;stroke:none"
         d="m 205.141,10.912 c 1,0 1.769,-0.313 2.312,-0.938 0.551,-0.617 0.828,-1.558 0.828,-2.828 l 0,-0.468 -5.312,0 c 0.051,-0.774 0.301,-1.356 0.75,-1.75 0.457,-0.399 1.097,-0.594 1.922,-0.594 0.468,0 0.867,0.035 1.203,0.109 0.332,0.07 0.582,0.149 0.75,0.235 l 0.172,-1.125 C 207.609,3.467 207.32,3.381 206.906,3.287 206.488,3.193 206.02,3.146 205.5,3.146 c -0.648,0 -1.215,0.102 -1.703,0.297 -0.481,0.195 -0.883,0.461 -1.203,0.797 -0.313,0.344 -0.555,0.75 -0.719,1.219 -0.156,0.476 -0.234,1 -0.234,1.562 0,0.657 0.097,1.227 0.297,1.719 0.207,0.488 0.472,0.895 0.796,1.219 0.332,0.32 0.707,0.562 1.125,0.719 0.414,0.156 0.844,0.234 1.282,0.234 z m 1.797,-3.156 c 0,0.625 -0.168,1.117 -0.5,1.484 -0.336,0.375 -0.774,0.563 -1.313,0.563 -0.313,0 -0.594,-0.063 -0.844,-0.188 -0.25,-0.117 -0.465,-0.273 -0.64,-0.469 C 203.461,8.959 203.316,8.74 203.203,8.49 203.098,8.248 203.031,8.006 203,7.756 l 3.938,0 z" /><path
         id="path52"
         style="fill:#000000;fill-opacity:1;fill-rule:nonzero;stroke:none"
         d="m 210.906,0.666 c 0.477,0 0.817,0.094 1.016,0.281 0.195,0.188 0.297,0.438 0.297,0.75 0,0.207 -0.043,0.379 -0.125,0.516 -0.086,0.132 -0.196,0.242 -0.328,0.328 -0.137,0.094 -0.297,0.156 -0.485,0.187 -0.179,0.032 -0.367,0.047 -0.562,0.047 l -0.188,0 0,0.61 0.266,0 c 0.125,0 0.254,0.007 0.391,0.031 0.144,0.031 0.273,0.082 0.39,0.156 0.125,0.07 0.223,0.164 0.297,0.281 0.07,0.125 0.109,0.274 0.109,0.453 0,0.313 -0.101,0.532 -0.296,0.657 -0.188,0.132 -0.407,0.203 -0.657,0.203 -0.261,0 -0.48,-0.043 -0.656,-0.125 -0.18,-0.074 -0.328,-0.149 -0.453,-0.219 l -0.281,0.563 c 0.125,0.093 0.312,0.187 0.562,0.281 0.258,0.101 0.547,0.156 0.859,0.156 0.29,0 0.54,-0.039 0.75,-0.109 0.208,-0.075 0.379,-0.18 0.516,-0.313 0.133,-0.137 0.234,-0.293 0.297,-0.469 0.07,-0.179 0.109,-0.371 0.109,-0.578 0,-0.293 -0.078,-0.543 -0.234,-0.75 -0.148,-0.199 -0.34,-0.351 -0.578,-0.453 0.281,-0.094 0.523,-0.262 0.734,-0.5 0.219,-0.242 0.328,-0.562 0.328,-0.969 0,-0.242 -0.043,-0.464 -0.125,-0.671 -0.086,-0.211 -0.211,-0.387 -0.375,-0.532 -0.168,-0.148 -0.382,-0.261 -0.64,-0.343 -0.262,-0.082 -0.571,-0.125 -0.922,-0.125 -0.149,0 -0.293,0.011 -0.438,0.031 -0.148,0.023 -0.281,0.047 -0.406,0.078 -0.125,0.031 -0.242,0.062 -0.344,0.094 -0.093,0.031 -0.164,0.054 -0.203,0.078 l 0.141,0.64 c 0.094,-0.054 0.242,-0.109 0.453,-0.171 0.219,-0.063 0.477,-0.094 0.781,-0.094 z" /><path
         id="path54"
         style="fill:#000000;fill-opacity:1;fill-rule:nonzero;stroke:none"
         d="m 215.891,2.053 c 0.187,0.042 0.375,0.085 0.562,0.125 0.188,0.042 0.359,0.105 0.516,0.187 0.164,0.086 0.312,0.188 0.437,0.313 0.125,0.117 0.223,0.281 0.297,0.5 -0.336,0.031 -0.578,0.16 -0.734,0.39 -0.157,0.227 -0.235,0.453 -0.235,0.672 0,0.426 0.118,0.75 0.36,0.969 0.238,0.219 0.515,0.328 0.828,0.328 0.394,0 0.691,-0.141 0.89,-0.422 0.196,-0.281 0.297,-0.625 0.297,-1.031 0,-0.313 -0.062,-0.637 -0.187,-0.969 -0.117,-0.332 -0.297,-0.645 -0.547,-0.937 -0.25,-0.29 -0.563,-0.54 -0.937,-0.75 -0.376,-0.208 -0.821,-0.344 -1.329,-0.407 l -0.218,1.032 z" /><path
         id="path56"
         style="fill:#000000;fill-opacity:1;fill-rule:nonzero;stroke:none"
         d="m 231.688,3.99 c 0,-0.242 -0.079,-0.445 -0.235,-0.609 -0.148,-0.164 -0.351,-0.25 -0.609,-0.25 -0.262,0 -0.469,0.086 -0.625,0.25 C 230.07,3.545 230,3.748 230,3.99 c 0,0.238 0.07,0.441 0.219,0.609 0.156,0.164 0.363,0.25 0.625,0.25 0.258,0 0.461,-0.086 0.609,-0.25 0.156,-0.168 0.235,-0.371 0.235,-0.609 z m 2.656,0 c 0,-0.242 -0.074,-0.445 -0.219,-0.609 -0.148,-0.164 -0.352,-0.25 -0.609,-0.25 -0.262,0 -0.465,0.086 -0.61,0.25 -0.148,0.164 -0.218,0.367 -0.218,0.609 0,0.238 0.07,0.441 0.218,0.609 0.145,0.164 0.348,0.25 0.61,0.25 0.257,0 0.461,-0.086 0.609,-0.25 0.145,-0.168 0.219,-0.371 0.219,-0.609 z m 2.656,0 c 0,-0.242 -0.074,-0.445 -0.219,-0.609 -0.148,-0.164 -0.351,-0.25 -0.609,-0.25 -0.262,0 -0.465,0.086 -0.61,0.25 -0.148,0.164 -0.218,0.367 -0.218,0.609 0,0.238 0.07,0.441 0.218,0.609 0.145,0.164 0.348,0.25 0.61,0.25 0.258,0 0.461,-0.086 0.609,-0.25 C 236.926,4.431 237,4.228 237,3.99 Z" /><path
         id="path58"
         style="fill:#000000;fill-opacity:1;fill-rule:nonzero;stroke:none"
         d="m 239.891,2.053 c 0.187,0.042 0.375,0.085 0.562,0.125 0.188,0.042 0.359,0.105 0.516,0.187 0.164,0.086 0.312,0.188 0.437,0.313 0.125,0.117 0.223,0.281 0.297,0.5 -0.336,0.031 -0.578,0.16 -0.734,0.39 -0.157,0.227 -0.235,0.453 -0.235,0.672 0,0.426 0.118,0.75 0.36,0.969 0.238,0.219 0.515,0.328 0.828,0.328 0.394,0 0.691,-0.141 0.89,-0.422 0.196,-0.281 0.297,-0.625 0.297,-1.031 0,-0.313 -0.062,-0.637 -0.187,-0.969 -0.117,-0.332 -0.297,-0.645 -0.547,-0.937 -0.25,-0.29 -0.563,-0.54 -0.937,-0.75 -0.376,-0.208 -0.821,-0.344 -1.329,-0.407 l -0.218,1.032 z" /><path
         id="path60"
         style="fill:#000000;fill-opacity:1;fill-rule:nonzero;stroke:none"
         d="m 257.641,10.912 c 1,0 1.769,-0.313 2.312,-0.938 0.551,-0.617 0.828,-1.558 0.828,-2.828 l 0,-0.468 -5.312,0 c 0.051,-0.774 0.301,-1.356 0.75,-1.75 0.457,-0.399 1.097,-0.594 1.922,-0.594 0.468,0 0.867,0.035 1.203,0.109 0.332,0.07 0.582,0.149 0.75,0.235 l 0.172,-1.125 C 260.109,3.467 259.82,3.381 259.406,3.287 258.988,3.193 258.52,3.146 258,3.146 c -0.648,0 -1.215,0.102 -1.703,0.297 -0.481,0.195 -0.883,0.461 -1.203,0.797 -0.313,0.344 -0.555,0.75 -0.719,1.219 -0.156,0.476 -0.234,1 -0.234,1.562 0,0.657 0.097,1.227 0.297,1.719 0.207,0.488 0.472,0.895 0.796,1.219 0.332,0.32 0.707,0.562 1.125,0.719 0.414,0.156 0.844,0.234 1.282,0.234 z m 1.797,-3.156 c 0,0.625 -0.168,1.117 -0.5,1.484 -0.336,0.375 -0.774,0.563 -1.313,0.563 -0.313,0 -0.594,-0.063 -0.844,-0.188 -0.25,-0.117 -0.465,-0.273 -0.64,-0.469 C 255.961,8.959 255.816,8.74 255.703,8.49 255.598,8.248 255.531,8.006 255.5,7.756 l 3.938,0 z" /><path
         id="path62"
         style="fill:#000000;fill-opacity:1;fill-rule:nonzero;stroke:none"
         d="m 262.141,4.181 c 0.269,0.063 0.535,0.11 0.797,0.141 0.269,0.039 0.523,0.063 0.765,0.063 0.551,0 0.969,-0.149 1.25,-0.438 0.289,-0.281 0.438,-0.742 0.438,-1.375 l 0,-2.453 -0.735,0 0,2.312 c 0,0.27 -0.027,0.489 -0.078,0.657 -0.055,0.164 -0.121,0.297 -0.203,0.39 -0.086,0.094 -0.187,0.157 -0.313,0.188 -0.124,0.039 -0.261,0.062 -0.406,0.062 -0.117,0 -0.242,-0.011 -0.375,-0.031 -0.136,-0.012 -0.265,-0.027 -0.39,-0.047 l 0,-3.531 -0.75,0 0,4.062 z" /><path
         id="path64"
         style="fill:#000000;fill-opacity:1;fill-rule:nonzero;stroke:none"
         d="m 267.266,2.76 1.969,0 0,-0.703 -1.969,0 0,0.703 z" /><path
         id="path66"
         style="fill:#000000;fill-opacity:1;fill-rule:nonzero;stroke:none"
         d="m 271.172,4.541 c 0.312,0.113 0.609,0.258 0.89,0.437 0.29,0.188 0.555,0.426 0.797,0.719 l 0.532,0 0,-4.953 1.047,0 0,-0.625 -3,0 0,0.625 1.218,0 0,3.906 C 272.582,4.595 272.5,4.533 272.406,4.463 272.312,4.4 272.207,4.338 272.094,4.275 271.988,4.22 271.875,4.17 271.75,4.119 271.633,4.064 271.52,4.017 271.406,3.978 l -0.234,0.563 z" /><path
         id="path68"
         style="fill:#000000;fill-opacity:1;fill-rule:nonzero;stroke:none"
         d="m 277.391,2.053 c 0.187,0.042 0.375,0.085 0.562,0.125 0.188,0.042 0.359,0.105 0.516,0.187 0.164,0.086 0.312,0.188 0.437,0.313 0.125,0.117 0.223,0.281 0.297,0.5 -0.336,0.031 -0.578,0.16 -0.734,0.39 -0.157,0.227 -0.235,0.453 -0.235,0.672 0,0.426 0.118,0.75 0.36,0.969 0.238,0.219 0.515,0.328 0.828,0.328 0.394,0 0.691,-0.141 0.89,-0.422 0.196,-0.281 0.297,-0.625 0.297,-1.031 0,-0.313 -0.062,-0.637 -0.187,-0.969 -0.117,-0.332 -0.297,-0.645 -0.547,-0.937 -0.25,-0.29 -0.563,-0.54 -0.937,-0.75 -0.376,-0.208 -0.821,-0.344 -1.329,-0.407 l -0.218,1.032 z" /><path
         id="path70"
         style="fill:#000000;fill-opacity:1;fill-rule:nonzero;stroke:none"
         d="m 295.141,10.912 c 1,0 1.769,-0.313 2.312,-0.938 0.551,-0.617 0.828,-1.558 0.828,-2.828 l 0,-0.468 -5.312,0 c 0.051,-0.774 0.301,-1.356 0.75,-1.75 0.457,-0.399 1.097,-0.594 1.922,-0.594 0.468,0 0.867,0.035 1.203,0.109 0.332,0.07 0.582,0.149 0.75,0.235 l 0.172,-1.125 C 297.609,3.467 297.32,3.381 296.906,3.287 296.488,3.193 296.02,3.146 295.5,3.146 c -0.648,0 -1.215,0.102 -1.703,0.297 -0.481,0.195 -0.883,0.461 -1.203,0.797 -0.313,0.344 -0.555,0.75 -0.719,1.219 -0.156,0.476 -0.234,1 -0.234,1.562 0,0.657 0.097,1.227 0.297,1.719 0.207,0.488 0.472,0.895 0.796,1.219 0.332,0.32 0.707,0.562 1.125,0.719 0.414,0.156 0.844,0.234 1.282,0.234 z m 1.797,-3.156 c 0,0.625 -0.168,1.117 -0.5,1.484 -0.336,0.375 -0.774,0.563 -1.313,0.563 -0.313,0 -0.594,-0.063 -0.844,-0.188 -0.25,-0.117 -0.465,-0.273 -0.64,-0.469 C 293.461,8.959 293.316,8.74 293.203,8.49 293.098,8.248 293.031,8.006 293,7.756 l 3.938,0 z" /><path
         id="path72"
         style="fill:#000000;fill-opacity:1;fill-rule:nonzero;stroke:none"
         d="m 299.641,4.181 c 0.269,0.063 0.535,0.11 0.797,0.141 0.269,0.039 0.523,0.063 0.765,0.063 0.551,0 0.969,-0.149 1.25,-0.438 0.289,-0.281 0.438,-0.742 0.438,-1.375 l 0,-2.453 -0.735,0 0,2.312 c 0,0.27 -0.027,0.489 -0.078,0.657 -0.055,0.164 -0.121,0.297 -0.203,0.39 -0.086,0.094 -0.187,0.157 -0.313,0.188 -0.124,0.039 -0.261,0.062 -0.406,0.062 -0.117,0 -0.242,-0.011 -0.375,-0.031 -0.136,-0.012 -0.265,-0.027 -0.39,-0.047 l 0,-3.531 -0.75,0 0,4.062 z" /><path
         id="path74"
         style="fill:#000000;fill-opacity:1;fill-rule:nonzero;stroke:none"
         d="m 309.219,0.678 -3.828,0 0,1.046 2.578,0 0,11.735 -2.578,0 0,1.047 3.828,0 0,-13.828 z" /><path
         id="path76"
         style="fill:#008080;fill-opacity:1;fill-rule:nonzero;stroke:none"
         d="m 324.047,13.006 c 0,-0.387 -0.125,-0.696 -0.375,-0.922 -0.242,-0.219 -0.531,-0.328 -0.875,-0.328 -0.344,0 -0.637,0.109 -0.875,0.328 -0.242,0.226 -0.36,0.535 -0.36,0.922 0,0.382 0.118,0.687 0.36,0.906 0.238,0.226 0.531,0.344 0.875,0.344 0.344,0 0.633,-0.118 0.875,-0.344 0.25,-0.219 0.375,-0.524 0.375,-0.906 z m 2.922,-9.375 c -0.407,-0.188 -0.789,-0.313 -1.141,-0.375 -0.355,-0.071 -0.683,-0.11 -0.984,-0.11 -0.512,0 -0.946,0.074 -1.297,0.219 -0.344,0.145 -0.621,0.359 -0.828,0.641 -0.211,0.289 -0.356,0.64 -0.438,1.047 -0.086,0.406 -0.125,0.867 -0.125,1.39 l 0,2.766 -2.078,0 0,1.625 4.047,0 0,-4.656 c 0,-0.45 0.082,-0.782 0.25,-1 0.164,-0.219 0.441,-0.329 0.828,-0.329 0.176,0 0.391,0.024 0.641,0.079 0.258,0.05 0.551,0.148 0.875,0.296 l 0.25,-1.593 z" /><path
         id="path78"
         style="fill:#008080;fill-opacity:1;fill-rule:nonzero;stroke:none"
         d="m 329.719,3.318 0,5.891 -1.641,0 0,1.625 1.641,0 0,0.437 c 0,0.602 0.086,1.102 0.265,1.5 0.176,0.407 0.411,0.727 0.704,0.969 0.3,0.238 0.644,0.41 1.031,0.516 0.383,0.101 0.781,0.156 1.187,0.156 0.414,0 0.844,-0.043 1.282,-0.125 0.437,-0.074 0.832,-0.195 1.187,-0.359 l -0.344,-1.594 c -0.242,0.082 -0.547,0.164 -0.922,0.25 -0.367,0.094 -0.714,0.14 -1.047,0.14 -0.179,0 -0.351,-0.015 -0.515,-0.046 -0.168,-0.032 -0.313,-0.106 -0.438,-0.219 -0.117,-0.106 -0.214,-0.258 -0.297,-0.453 -0.074,-0.188 -0.109,-0.446 -0.109,-0.766 l 0,-0.406 3.094,0 0,-1.625 -3.094,0 0,-5.891 -1.984,0 z" /><path
         id="path80"
         style="fill:#000000;fill-opacity:1;fill-rule:nonzero;stroke:none"
         d="m 347.266,13.318 c 0.582,0 1.093,-0.078 1.531,-0.234 0.445,-0.149 0.816,-0.356 1.109,-0.625 0.289,-0.274 0.508,-0.594 0.656,-0.969 0.145,-0.375 0.219,-0.793 0.219,-1.25 0,-1.031 -0.308,-1.828 -0.922,-2.391 -0.605,-0.554 -1.515,-0.828 -2.734,-0.828 l -1.141,0 0,-3.703 -1.312,0 0,9.766 c 0.187,0.039 0.394,0.078 0.625,0.109 0.226,0.031 0.457,0.055 0.687,0.078 0.227,0.02 0.454,0.032 0.672,0.032 0.219,0.007 0.422,0.015 0.61,0.015 z m 0.093,-1.14 c -0.281,0 -0.554,-0.008 -0.812,-0.016 -0.25,0 -0.438,-0.012 -0.563,-0.031 l 0,-4 1.078,0 c 0.801,0 1.395,0.16 1.782,0.484 0.394,0.32 0.594,0.848 0.594,1.578 0,1.32 -0.696,1.985 -2.079,1.985 z" /><path
         id="path82"
         style="fill:#000000;fill-opacity:1;fill-rule:nonzero;stroke:none"
         d="m 352.172,7.74 c 0.312,0.113 0.609,0.258 0.89,0.438 0.29,0.187 0.555,0.425 0.797,0.718 l 0.532,0 0,-4.953 1.047,0 0,-0.625 -3,0 0,0.625 1.218,0 0,3.906 C 353.582,7.795 353.5,7.732 353.406,7.662 353.312,7.599 353.207,7.537 353.094,7.474 352.988,7.42 352.875,7.369 352.75,7.318 352.633,7.263 352.52,7.217 352.406,7.178 l -0.234,0.562 z" /><path
         id="path84"
         style="fill:#000000;fill-opacity:1;fill-rule:nonzero;stroke:none"
         d="m 362.141,13.568 c -0.993,-0.762 -1.746,-1.648 -2.266,-2.656 -0.523,-1 -0.781,-2.094 -0.781,-3.281 0,-0.594 0.054,-1.157 0.172,-1.688 0.125,-0.531 0.312,-1.043 0.562,-1.531 0.25,-0.492 0.567,-0.965 0.953,-1.422 0.395,-0.469 0.86,-0.93 1.391,-1.391 l -0.719,-0.953 c -1.23,0.907 -2.148,1.961 -2.75,3.157 -0.594,1.195 -0.891,2.46 -0.891,3.796 0,1.321 0.301,2.586 0.907,3.797 0.601,1.207 1.515,2.254 2.734,3.141 l 0.703,-0.969 -0.015,0 z" /><path
         id="path86"
         style="fill:#000000;fill-opacity:1;fill-rule:nonzero;stroke:none"
         d="m 368.141,10.912 c 1,0 1.769,-0.313 2.312,-0.938 0.551,-0.617 0.828,-1.558 0.828,-2.828 l 0,-0.468 -5.312,0 c 0.051,-0.774 0.301,-1.356 0.75,-1.75 0.457,-0.399 1.097,-0.594 1.922,-0.594 0.468,0 0.867,0.035 1.203,0.109 0.332,0.07 0.582,0.149 0.75,0.235 l 0.172,-1.125 C 370.609,3.467 370.32,3.381 369.906,3.287 369.488,3.193 369.02,3.146 368.5,3.146 c -0.648,0 -1.215,0.102 -1.703,0.297 -0.481,0.195 -0.883,0.461 -1.203,0.797 -0.313,0.344 -0.555,0.75 -0.719,1.219 -0.156,0.476 -0.234,1 -0.234,1.562 0,0.657 0.097,1.227 0.297,1.719 0.207,0.488 0.472,0.895 0.796,1.219 0.332,0.32 0.707,0.562 1.125,0.719 0.414,0.156 0.844,0.234 1.282,0.234 z m 1.797,-3.156 c 0,0.625 -0.168,1.117 -0.5,1.484 -0.336,0.375 -0.774,0.563 -1.313,0.563 -0.313,0 -0.594,-0.063 -0.844,-0.188 -0.25,-0.117 -0.465,-0.273 -0.64,-0.469 C 366.461,8.959 366.316,8.74 366.203,8.49 366.098,8.248 366.031,8.006 366,7.756 l 3.938,0 z" /><path
         id="path88"
         style="fill:#000000;fill-opacity:1;fill-rule:nonzero;stroke:none"
         d="m 373.844,1.599 c 0.988,0.774 1.742,1.657 2.265,2.657 0.532,1.007 0.797,2.101 0.797,3.281 0,0.601 -0.062,1.172 -0.187,1.703 -0.117,0.531 -0.305,1.039 -0.563,1.531 -0.25,0.489 -0.574,0.961 -0.968,1.422 -0.387,0.457 -0.844,0.914 -1.376,1.375 l 0.719,0.969 c 1.227,-0.906 2.141,-1.965 2.735,-3.172 0.601,-1.199 0.906,-2.465 0.906,-3.797 0,-0.656 -0.078,-1.308 -0.234,-1.953 -0.149,-0.637 -0.376,-1.25 -0.688,-1.844 -0.305,-0.593 -0.684,-1.148 -1.141,-1.672 -0.449,-0.531 -0.976,-1.015 -1.578,-1.453 l -0.703,0.953 0.016,0 z" /><path
         id="path90"
         style="fill:#008080;fill-opacity:1;fill-rule:nonzero;stroke:none"
         d="m 392.547,13.006 c 0,-0.387 -0.125,-0.696 -0.375,-0.922 -0.242,-0.219 -0.531,-0.328 -0.875,-0.328 -0.344,0 -0.637,0.109 -0.875,0.328 -0.242,0.226 -0.36,0.535 -0.36,0.922 0,0.382 0.118,0.687 0.36,0.906 0.238,0.226 0.531,0.344 0.875,0.344 0.344,0 0.633,-0.118 0.875,-0.344 0.25,-0.219 0.375,-0.524 0.375,-0.906 z m 2.922,-9.375 c -0.407,-0.188 -0.789,-0.313 -1.141,-0.375 -0.355,-0.071 -0.683,-0.11 -0.984,-0.11 -0.512,0 -0.946,0.074 -1.297,0.219 -0.344,0.145 -0.621,0.359 -0.828,0.641 -0.211,0.289 -0.356,0.64 -0.438,1.047 -0.086,0.406 -0.125,0.867 -0.125,1.39 l 0,2.766 -2.078,0 0,1.625 4.047,0 0,-4.656 c 0,-0.45 0.082,-0.782 0.25,-1 0.164,-0.219 0.441,-0.329 0.828,-0.329 0.176,0 0.391,0.024 0.641,0.079 0.258,0.05 0.551,0.148 0.875,0.296 l 0.25,-1.593 z" /><path
         id="path92"
         style="fill:#008080;fill-opacity:1;fill-rule:nonzero;stroke:none"
         d="m 398.219,3.318 0,5.891 -1.641,0 0,1.625 1.641,0 0,0.437 c 0,0.602 0.086,1.102 0.265,1.5 0.176,0.407 0.411,0.727 0.704,0.969 0.3,0.238 0.644,0.41 1.031,0.516 0.383,0.101 0.781,0.156 1.187,0.156 0.414,0 0.844,-0.043 1.282,-0.125 0.437,-0.074 0.832,-0.195 1.187,-0.359 l -0.344,-1.594 c -0.242,0.082 -0.547,0.164 -0.922,0.25 -0.367,0.094 -0.714,0.14 -1.047,0.14 -0.179,0 -0.351,-0.015 -0.515,-0.046 -0.168,-0.032 -0.313,-0.106 -0.438,-0.219 -0.117,-0.106 -0.214,-0.258 -0.297,-0.453 -0.074,-0.188 -0.109,-0.446 -0.109,-0.766 l 0,-0.406 3.094,0 0,-1.625 -3.094,0 0,-5.891 -1.984,0 z" /><path
         id="path94"
         style="fill:#000000;fill-opacity:1;fill-rule:nonzero;stroke:none"
         d="m 415.766,13.318 c 0.582,0 1.093,-0.078 1.531,-0.234 0.445,-0.149 0.816,-0.356 1.109,-0.625 0.289,-0.274 0.508,-0.594 0.656,-0.969 0.145,-0.375 0.219,-0.793 0.219,-1.25 0,-1.031 -0.308,-1.828 -0.922,-2.391 -0.605,-0.554 -1.515,-0.828 -2.734,-0.828 l -1.141,0 0,-3.703 -1.312,0 0,9.766 c 0.187,0.039 0.394,0.078 0.625,0.109 0.226,0.031 0.457,0.055 0.687,0.078 0.227,0.02 0.454,0.032 0.672,0.032 0.219,0.007 0.422,0.015 0.61,0.015 z m 0.093,-1.14 c -0.281,0 -0.554,-0.008 -0.812,-0.016 -0.25,0 -0.438,-0.012 -0.563,-0.031 l 0,-4 1.078,0 c 0.801,0 1.395,0.16 1.782,0.484 0.394,0.32 0.594,0.848 0.594,1.578 0,1.32 -0.696,1.985 -2.079,1.985 z" /><path
         id="path96"
         style="fill:#000000;fill-opacity:1;fill-rule:nonzero;stroke:none"
         d="m 423.781,7.474 c 0,-0.199 -0.039,-0.386 -0.109,-0.562 -0.074,-0.18 -0.172,-0.356 -0.297,-0.531 -0.125,-0.18 -0.266,-0.352 -0.422,-0.516 -0.156,-0.168 -0.32,-0.336 -0.484,-0.5 -0.086,-0.086 -0.188,-0.195 -0.313,-0.328 -0.117,-0.125 -0.23,-0.258 -0.344,-0.391 -0.105,-0.125 -0.195,-0.25 -0.265,-0.375 -0.074,-0.125 -0.109,-0.234 -0.109,-0.328 l 2.562,0 0,-0.625 -3.375,0 c 0,0.031 0,0.063 0,0.094 0,0.031 0,0.062 0,0.094 0,0.25 0.039,0.484 0.125,0.703 0.082,0.219 0.188,0.422 0.312,0.609 0.133,0.195 0.286,0.379 0.454,0.547 0.164,0.164 0.328,0.332 0.484,0.5 0.133,0.133 0.266,0.266 0.391,0.391 0.125,0.125 0.234,0.25 0.328,0.375 0.093,0.125 0.164,0.254 0.219,0.39 0.062,0.133 0.093,0.274 0.093,0.422 0,0.156 -0.027,0.289 -0.078,0.406 -0.055,0.114 -0.125,0.207 -0.219,0.282 -0.086,0.082 -0.183,0.14 -0.296,0.172 -0.118,0.039 -0.243,0.062 -0.376,0.062 -0.148,0 -0.289,-0.027 -0.421,-0.078 -0.125,-0.043 -0.243,-0.094 -0.344,-0.156 -0.094,-0.055 -0.18,-0.11 -0.25,-0.172 -0.074,-0.055 -0.133,-0.094 -0.172,-0.125 l -0.359,0.515 c 0.039,0.051 0.109,0.114 0.203,0.188 0.101,0.082 0.222,0.156 0.359,0.219 0.133,0.07 0.285,0.132 0.453,0.187 0.164,0.051 0.344,0.078 0.531,0.078 0.583,0 1.016,-0.136 1.297,-0.406 0.282,-0.273 0.422,-0.652 0.422,-1.141 z" /><path
         id="path98"
         style="fill:#000000;fill-opacity:1;fill-rule:nonzero;stroke:none"
         d="m 430.641,13.568 c -0.993,-0.762 -1.746,-1.648 -2.266,-2.656 -0.523,-1 -0.781,-2.094 -0.781,-3.281 0,-0.594 0.054,-1.157 0.172,-1.688 0.125,-0.531 0.312,-1.043 0.562,-1.531 0.25,-0.492 0.567,-0.965 0.953,-1.422 0.395,-0.469 0.86,-0.93 1.391,-1.391 l -0.719,-0.953 c -1.23,0.907 -2.148,1.961 -2.75,3.157 -0.594,1.195 -0.891,2.46 -0.891,3.796 0,1.321 0.301,2.586 0.907,3.797 0.601,1.207 1.515,2.254 2.734,3.141 l 0.703,-0.969 -0.015,0 z" /><path
         id="path100"
         style="fill:#000000;fill-opacity:1;fill-rule:nonzero;stroke:none"
         d="m 436.641,10.912 c 1,0 1.769,-0.313 2.312,-0.938 0.551,-0.617 0.828,-1.558 0.828,-2.828 l 0,-0.468 -5.312,0 c 0.051,-0.774 0.301,-1.356 0.75,-1.75 0.457,-0.399 1.097,-0.594 1.922,-0.594 0.468,0 0.867,0.035 1.203,0.109 0.332,0.07 0.582,0.149 0.75,0.235 l 0.172,-1.125 C 439.109,3.467 438.82,3.381 438.406,3.287 437.988,3.193 437.52,3.146 437,3.146 c -0.648,0 -1.215,0.102 -1.703,0.297 -0.481,0.195 -0.883,0.461 -1.203,0.797 -0.313,0.344 -0.555,0.75 -0.719,1.219 -0.156,0.476 -0.234,1 -0.234,1.562 0,0.657 0.097,1.227 0.297,1.719 0.207,0.488 0.472,0.895 0.796,1.219 0.332,0.32 0.707,0.562 1.125,0.719 0.414,0.156 0.844,0.234 1.282,0.234 z m 1.797,-3.156 c 0,0.625 -0.168,1.117 -0.5,1.484 -0.336,0.375 -0.774,0.563 -1.313,0.563 -0.313,0 -0.594,-0.063 -0.844,-0.188 -0.25,-0.117 -0.465,-0.273 -0.64,-0.469 C 434.961,8.959 434.816,8.74 434.703,8.49 434.598,8.248 434.531,8.006 434.5,7.756 l 3.938,0 z" /><path
         id="path102"
         style="fill:#000000;fill-opacity:1;fill-rule:nonzero;stroke:none"
         d="m 442.344,1.599 c 0.988,0.774 1.742,1.657 2.265,2.657 0.532,1.007 0.797,2.101 0.797,3.281 0,0.601 -0.062,1.172 -0.187,1.703 -0.117,0.531 -0.305,1.039 -0.563,1.531 -0.25,0.489 -0.574,0.961 -0.968,1.422 -0.387,0.457 -0.844,0.914 -1.376,1.375 l 0.719,0.969 c 1.227,-0.906 2.141,-1.965 2.735,-3.172 0.601,-1.199 0.906,-2.465 0.906,-3.797 0,-0.656 -0.078,-1.308 -0.234,-1.953 -0.149,-0.637 -0.376,-1.25 -0.688,-1.844 -0.305,-0.593 -0.684,-1.148 -1.141,-1.672 -0.449,-0.531 -0.976,-1.015 -1.578,-1.453 l -0.703,0.953 0.016,0 z" /><path
         id="path104"
         style="fill:#000000;fill-opacity:1;fill-rule:nonzero;stroke:none"
         d="m 461.688,4.349 c 0,-0.324 -0.11,-0.609 -0.329,-0.859 -0.211,-0.238 -0.492,-0.359 -0.843,-0.359 -0.368,0 -0.657,0.121 -0.875,0.359 -0.211,0.25 -0.313,0.535 -0.313,0.859 0,0.321 0.102,0.602 0.313,0.844 0.218,0.25 0.507,0.375 0.875,0.375 0.351,0 0.632,-0.125 0.843,-0.375 0.219,-0.242 0.329,-0.523 0.329,-0.844 z" /><path
         id="path106"
         style="fill:#000000;fill-opacity:1;fill-rule:nonzero;stroke:none"
         d="m 469.688,4.349 c 0,-0.324 -0.11,-0.609 -0.329,-0.859 -0.211,-0.238 -0.492,-0.359 -0.843,-0.359 -0.368,0 -0.657,0.121 -0.875,0.359 -0.211,0.25 -0.313,0.535 -0.313,0.859 0,0.321 0.102,0.602 0.313,0.844 0.218,0.25 0.507,0.375 0.875,0.375 0.351,0 0.632,-0.125 0.843,-0.375 0.219,-0.242 0.329,-0.523 0.329,-0.844 z" /><path
         id="path108"
         style="fill:#000000;fill-opacity:1;fill-rule:nonzero;stroke:none"
         d="m 477.688,4.349 c 0,-0.324 -0.11,-0.609 -0.329,-0.859 -0.211,-0.238 -0.492,-0.359 -0.843,-0.359 -0.368,0 -0.657,0.121 -0.875,0.359 -0.211,0.25 -0.313,0.535 -0.313,0.859 0,0.321 0.102,0.602 0.313,0.844 0.218,0.25 0.507,0.375 0.875,0.375 0.351,0 0.632,-0.125 0.843,-0.375 0.219,-0.242 0.329,-0.523 0.329,-0.844 z" /><path
         id="path110"
         style="fill:#008080;fill-opacity:1;fill-rule:nonzero;stroke:none"
         d="m 493.047,13.006 c 0,-0.387 -0.125,-0.696 -0.375,-0.922 -0.242,-0.219 -0.531,-0.328 -0.875,-0.328 -0.344,0 -0.637,0.109 -0.875,0.328 -0.242,0.226 -0.36,0.535 -0.36,0.922 0,0.382 0.118,0.687 0.36,0.906 0.238,0.226 0.531,0.344 0.875,0.344 0.344,0 0.633,-0.118 0.875,-0.344 0.25,-0.219 0.375,-0.524 0.375,-0.906 z m 2.922,-9.375 c -0.407,-0.188 -0.789,-0.313 -1.141,-0.375 -0.355,-0.071 -0.683,-0.11 -0.984,-0.11 -0.512,0 -0.946,0.074 -1.297,0.219 -0.344,0.145 -0.621,0.359 -0.828,0.641 -0.211,0.289 -0.356,0.64 -0.438,1.047 -0.086,0.406 -0.125,0.867 -0.125,1.39 l 0,2.766 -2.078,0 0,1.625 4.047,0 0,-4.656 c 0,-0.45 0.082,-0.782 0.25,-1 0.164,-0.219 0.441,-0.329 0.828,-0.329 0.176,0 0.391,0.024 0.641,0.079 0.258,0.05 0.551,0.148 0.875,0.296 l 0.25,-1.593 z" /><path
         id="path112"
         style="fill:#008080;fill-opacity:1;fill-rule:nonzero;stroke:none"
         d="m 498.719,3.318 0,5.891 -1.641,0 0,1.625 1.641,0 0,0.437 c 0,0.602 0.086,1.102 0.265,1.5 0.176,0.407 0.411,0.727 0.704,0.969 0.3,0.238 0.644,0.41 1.031,0.516 0.383,0.101 0.781,0.156 1.187,0.156 0.414,0 0.844,-0.043 1.282,-0.125 0.437,-0.074 0.832,-0.195 1.187,-0.359 l -0.344,-1.594 c -0.242,0.082 -0.547,0.164 -0.922,0.25 -0.367,0.094 -0.714,0.14 -1.047,0.14 -0.179,0 -0.351,-0.015 -0.515,-0.046 -0.168,-0.032 -0.313,-0.106 -0.438,-0.219 -0.117,-0.106 -0.214,-0.258 -0.297,-0.453 -0.074,-0.188 -0.109,-0.446 -0.109,-0.766 l 0,-0.406 3.094,0 0,-1.625 -3.094,0 0,-5.891 -1.984,0 z" /><path
         id="path114"
         style="fill:#000000;fill-opacity:1;fill-rule:nonzero;stroke:none"
         d="m 516.266,13.318 c 0.582,0 1.093,-0.078 1.531,-0.234 0.445,-0.149 0.816,-0.356 1.109,-0.625 0.289,-0.274 0.508,-0.594 0.656,-0.969 0.145,-0.375 0.219,-0.793 0.219,-1.25 0,-1.031 -0.308,-1.828 -0.922,-2.391 -0.605,-0.554 -1.515,-0.828 -2.734,-0.828 l -1.141,0 0,-3.703 -1.312,0 0,9.766 c 0.187,0.039 0.394,0.078 0.625,0.109 0.226,0.031 0.457,0.055 0.687,0.078 0.227,0.02 0.454,0.032 0.672,0.032 0.219,0.007 0.422,0.015 0.61,0.015 z m 0.093,-1.14 c -0.281,0 -0.554,-0.008 -0.812,-0.016 -0.25,0 -0.438,-0.012 -0.563,-0.031 l 0,-4 1.078,0 c 0.801,0 1.395,0.16 1.782,0.484 0.394,0.32 0.594,0.848 0.594,1.578 0,1.32 -0.696,1.985 -2.079,1.985 z" /><path
         id="path116"
         style="fill:#000000;fill-opacity:1;fill-rule:nonzero;stroke:none"
         d="m 520.875,7.381 c 0.352,0.132 0.691,0.203 1.016,0.203 0.164,0 0.328,-0.028 0.484,-0.078 0.156,-0.055 0.285,-0.133 0.391,-0.235 0.257,0.207 0.535,0.313 0.828,0.313 0.144,0 0.281,-0.028 0.406,-0.078 0.133,-0.055 0.25,-0.137 0.344,-0.25 0.101,-0.106 0.179,-0.243 0.234,-0.407 0.063,-0.156 0.094,-0.343 0.094,-0.562 l 0,-2.969 -0.672,0 0,2.985 c 0,0.218 -0.047,0.382 -0.141,0.5 -0.093,0.113 -0.214,0.171 -0.359,0.171 -0.074,0 -0.152,-0.023 -0.234,-0.062 -0.075,-0.031 -0.141,-0.09 -0.204,-0.172 0.032,-0.137 0.047,-0.289 0.047,-0.453 l 0,-1.359 -0.671,0 0,1.375 c 0,0.207 -0.04,0.367 -0.11,0.484 -0.062,0.125 -0.187,0.187 -0.375,0.187 -0.125,0 -0.262,-0.027 -0.406,-0.078 l 0,-3.578 -0.672,0 0,4.063 z" /><path
         id="path118"
         style="fill:#000000;fill-opacity:1;fill-rule:nonzero;stroke:none"
         d="m 531.141,13.568 c -0.993,-0.762 -1.746,-1.648 -2.266,-2.656 -0.523,-1 -0.781,-2.094 -0.781,-3.281 0,-0.594 0.054,-1.157 0.172,-1.688 0.125,-0.531 0.312,-1.043 0.562,-1.531 0.25,-0.492 0.567,-0.965 0.953,-1.422 0.395,-0.469 0.86,-0.93 1.391,-1.391 l -0.719,-0.953 c -1.23,0.907 -2.148,1.961 -2.75,3.157 -0.594,1.195 -0.891,2.46 -0.891,3.796 0,1.321 0.301,2.586 0.907,3.797 0.601,1.207 1.515,2.254 2.734,3.141 l 0.703,-0.969 -0.015,0 z" /><path
         id="path120"
         style="fill:#000000;fill-opacity:1;fill-rule:nonzero;stroke:none"
         d="m 537.141,10.912 c 1,0 1.769,-0.313 2.312,-0.938 0.551,-0.617 0.828,-1.558 0.828,-2.828 l 0,-0.468 -5.312,0 c 0.051,-0.774 0.301,-1.356 0.75,-1.75 0.457,-0.399 1.097,-0.594 1.922,-0.594 0.468,0 0.867,0.035 1.203,0.109 0.332,0.07 0.582,0.149 0.75,0.235 l 0.172,-1.125 C 539.609,3.467 539.32,3.381 538.906,3.287 538.488,3.193 538.02,3.146 537.5,3.146 c -0.648,0 -1.215,0.102 -1.703,0.297 -0.481,0.195 -0.883,0.461 -1.203,0.797 -0.313,0.344 -0.555,0.75 -0.719,1.219 -0.156,0.476 -0.234,1 -0.234,1.562 0,0.657 0.097,1.227 0.297,1.719 0.207,0.488 0.472,0.895 0.796,1.219 0.332,0.32 0.707,0.562 1.125,0.719 0.414,0.156 0.844,0.234 1.282,0.234 z m 1.797,-3.156 c 0,0.625 -0.168,1.117 -0.5,1.484 -0.336,0.375 -0.774,0.563 -1.313,0.563 -0.313,0 -0.594,-0.063 -0.844,-0.188 -0.25,-0.117 -0.465,-0.273 -0.64,-0.469 C 535.461,8.959 535.316,8.74 535.203,8.49 535.098,8.248 535.031,8.006 535,7.756 l 3.938,0 z" /><path
         id="path122"
         style="fill:#000000;fill-opacity:1;fill-rule:nonzero;stroke:none"
         d="m 542.844,1.599 c 0.988,0.774 1.742,1.657 2.265,2.657 0.532,1.007 0.797,2.101 0.797,3.281 0,0.601 -0.062,1.172 -0.187,1.703 -0.117,0.531 -0.305,1.039 -0.563,1.531 -0.25,0.489 -0.574,0.961 -0.968,1.422 -0.387,0.457 -0.844,0.914 -1.376,1.375 l 0.719,0.969 c 1.227,-0.906 2.141,-1.965 2.735,-3.172 0.601,-1.199 0.906,-2.465 0.906,-3.797 0,-0.656 -0.078,-1.308 -0.234,-1.953 -0.149,-0.637 -0.376,-1.25 -0.688,-1.844 -0.305,-0.593 -0.684,-1.148 -1.141,-1.672 -0.449,-0.531 -0.976,-1.015 -1.578,-1.453 l -0.703,0.953 0.016,0 z" /><path
         id="path124"
         style="fill:#000000;fill-opacity:1;fill-rule:nonzero;stroke:none"
         d="m 562.719,0.678 -3.828,0 0,1.046 2.578,0 0,11.735 -2.578,0 0,1.047 3.828,0 0,-13.828 z" /></g></g></svg>