<?xml version="1.0" encoding="UTF-8" standalone="no"?>
<svg
   xmlns:dc="http://purl.org/dc/elements/1.1/"
   xmlns:cc="http://creativecommons.org/ns#"
   xmlns:rdf="http://www.w3.org/1999/02/22-rdf-syntax-ns#"
   xmlns:svg="http://www.w3.org/2000/svg"
   xmlns="http://www.w3.org/2000/svg"
   viewBox="0 0 599.375 20.00337"
   height="20.00337"
   width="599.375"
   xml:space="preserve"
   version="1.1"
   id="svg2"><metadata
     id="metadata8"><rdf:RDF><cc:Work
         rdf:about=""><dc:format>image/svg+xml</dc:format><dc:type
           rdf:resource="http://purl.org/dc/dcmitype/StillImage" /><dc:title></dc:title></cc:Work></rdf:RDF></metadata><defs
     id="defs6" /><g
     transform="matrix(1.25,0,0,-1.25,0,20.003371)"
     id="g10"><g
       id="g12"><g
         transform="matrix(1,0,0,-1,0,16.002697)"
         id="g14"><path
           id="path16"
           style="fill:#ffff00;fill-opacity:1;fill-rule:nonzero;stroke:#ffff00;stroke-width:1.20000005;stroke-linecap:butt;stroke-linejoin:round;stroke-miterlimit:4;stroke-dasharray:none;stroke-opacity:1"
           d="m 23.422,0.602 176.344,0 0,14.801 -176.344,0 0,-14.801 z" /></g><path
         id="path18"
         style="fill:#000000;fill-opacity:1;fill-rule:nonzero;stroke:none"
         d="m 10.281,14.714 3.828,0 0,-1.047 -2.578,0 0,-11.735 2.578,0 0,-1.046 -3.828,0 0,13.828 z" /><path
         id="path20"
         style="fill:#000000;fill-opacity:1;fill-rule:nonzero;stroke:none"
         d="m 26.578,3.526 0,6.313 -1.562,0 0,1.109 1.562,0 0,0.672 c 0,0.57 0.078,1.047 0.234,1.422 0.165,0.383 0.379,0.691 0.641,0.922 0.258,0.238 0.563,0.406 0.906,0.5 0.344,0.101 0.707,0.156 1.094,0.156 0.383,0 0.77,-0.047 1.156,-0.141 0.395,-0.086 0.766,-0.183 1.11,-0.297 l -0.25,-1.14 c -0.231,0.125 -0.524,0.226 -0.875,0.312 -0.356,0.082 -0.715,0.125 -1.078,0.125 -0.219,0 -0.43,-0.031 -0.625,-0.093 -0.2,-0.055 -0.375,-0.153 -0.532,-0.297 -0.148,-0.149 -0.261,-0.34 -0.343,-0.578 -0.086,-0.243 -0.125,-0.543 -0.125,-0.907 l 0,-0.656 2.984,0 0,-1.109 -2.984,0 0,-6.313 -1.313,0 z" /><path
         id="path22"
         style="fill:#000000;fill-opacity:1;fill-rule:nonzero;stroke:none"
         d="m 38.141,13.776 c -0.993,-0.762 -1.746,-1.648 -2.266,-2.656 -0.523,-1 -0.781,-2.094 -0.781,-3.281 0,-0.594 0.054,-1.157 0.172,-1.688 0.125,-0.531 0.312,-1.043 0.562,-1.531 0.25,-0.492 0.567,-0.965 0.953,-1.422 0.395,-0.469 0.86,-0.93 1.391,-1.391 L 37.453,0.854 c -1.23,0.907 -2.148,1.961 -2.75,3.157 -0.594,1.195 -0.891,2.46 -0.891,3.796 0,1.321 0.301,2.586 0.907,3.797 0.601,1.207 1.515,2.254 2.734,3.141 l 0.703,-0.969 -0.015,0 z" /><path
         id="path24"
         style="fill:#000000;fill-opacity:1;fill-rule:nonzero;stroke:none"
         d="m 44.141,11.12 c 1,0 1.769,-0.313 2.312,-0.938 0.551,-0.617 0.828,-1.558 0.828,-2.828 l 0,-0.468 -5.312,0 c 0.051,-0.774 0.301,-1.356 0.75,-1.75 0.457,-0.399 1.097,-0.594 1.922,-0.594 0.468,0 0.867,0.035 1.203,0.109 0.332,0.07 0.582,0.149 0.75,0.235 L 46.766,3.761 C 46.609,3.675 46.32,3.589 45.906,3.495 45.488,3.401 45.02,3.354 44.5,3.354 c -0.648,0 -1.215,0.102 -1.703,0.297 -0.481,0.195 -0.883,0.461 -1.203,0.797 -0.313,0.344 -0.555,0.75 -0.719,1.219 -0.156,0.476 -0.234,1 -0.234,1.562 0,0.657 0.097,1.227 0.297,1.719 0.207,0.488 0.472,0.895 0.796,1.219 0.332,0.32 0.707,0.562 1.125,0.719 0.414,0.156 0.844,0.234 1.282,0.234 z m 1.797,-3.156 c 0,0.625 -0.168,1.117 -0.5,1.484 -0.336,0.375 -0.774,0.563 -1.313,0.563 -0.313,0 -0.594,-0.063 -0.844,-0.188 C 43.031,9.706 42.816,9.55 42.641,9.354 42.461,9.167 42.316,8.948 42.203,8.698 42.098,8.456 42.031,8.214 42,7.964 l 3.938,0 z" /><path
         id="path26"
         style="fill:#000000;fill-opacity:1;fill-rule:nonzero;stroke:none"
         d="m 49.844,1.807 c 0.988,0.774 1.742,1.657 2.265,2.657 0.532,1.007 0.797,2.101 0.797,3.281 0,0.601 -0.062,1.172 -0.187,1.703 -0.117,0.531 -0.305,1.039 -0.563,1.531 -0.25,0.489 -0.574,0.961 -0.968,1.422 -0.387,0.457 -0.844,0.914 -1.376,1.375 l 0.719,0.969 c 1.227,-0.906 2.141,-1.965 2.735,-3.172 0.601,-1.199 0.906,-2.465 0.906,-3.797 0,-0.656 -0.078,-1.308 -0.234,-1.953 C 53.789,5.186 53.562,4.573 53.25,3.979 52.945,3.386 52.566,2.831 52.109,2.307 51.66,1.776 51.133,1.292 50.531,0.854 l -0.703,0.953 0.016,0 z" /><path
         id="path28"
         style="fill:#008080;fill-opacity:1;fill-rule:nonzero;stroke:none"
         d="m 68.547,13.214 c 0,-0.387 -0.125,-0.696 -0.375,-0.922 -0.242,-0.219 -0.531,-0.328 -0.875,-0.328 -0.344,0 -0.637,0.109 -0.875,0.328 -0.242,0.226 -0.36,0.535 -0.36,0.922 0,0.382 0.118,0.687 0.36,0.906 0.238,0.226 0.531,0.344 0.875,0.344 0.344,0 0.633,-0.118 0.875,-0.344 0.25,-0.219 0.375,-0.524 0.375,-0.906 z M 71.469,3.839 C 71.062,3.651 70.68,3.526 70.328,3.464 69.973,3.393 69.645,3.354 69.344,3.354 c -0.512,0 -0.946,0.074 -1.297,0.219 -0.344,0.145 -0.621,0.359 -0.828,0.641 -0.211,0.289 -0.356,0.64 -0.438,1.047 -0.086,0.406 -0.125,0.867 -0.125,1.39 l 0,2.766 -2.078,0 0,1.625 4.047,0 0,-4.656 c 0,-0.45 0.082,-0.782 0.25,-1 0.164,-0.219 0.441,-0.329 0.828,-0.329 0.176,0 0.391,0.024 0.641,0.079 0.258,0.05 0.551,0.148 0.875,0.296 l 0.25,-1.593 z" /><path
         id="path30"
         style="fill:#008080;fill-opacity:1;fill-rule:nonzero;stroke:none"
         d="m 74.219,3.526 0,5.891 -1.641,0 0,1.625 1.641,0 0,0.437 c 0,0.602 0.086,1.102 0.265,1.5 0.176,0.407 0.411,0.727 0.704,0.969 0.3,0.238 0.644,0.41 1.031,0.516 0.383,0.101 0.781,0.156 1.187,0.156 0.414,0 0.844,-0.043 1.282,-0.125 0.437,-0.074 0.832,-0.195 1.187,-0.359 l -0.344,-1.594 c -0.242,0.082 -0.547,0.164 -0.922,0.25 -0.367,0.094 -0.714,0.14 -1.047,0.14 -0.179,0 -0.351,-0.015 -0.515,-0.046 -0.168,-0.032 -0.313,-0.106 -0.438,-0.219 -0.117,-0.106 -0.214,-0.258 -0.297,-0.453 -0.074,-0.188 -0.109,-0.446 -0.109,-0.766 l 0,-0.406 3.094,0 0,-1.625 -3.094,0 0,-5.891 -1.984,0 z" /><path
         id="path32"
         style="fill:#000000;fill-opacity:1;fill-rule:nonzero;stroke:none"
         d="m 91.766,13.526 c 0.582,0 1.093,-0.078 1.531,-0.234 0.445,-0.149 0.816,-0.356 1.109,-0.625 0.289,-0.274 0.508,-0.594 0.656,-0.969 0.145,-0.375 0.219,-0.793 0.219,-1.25 0,-1.031 -0.308,-1.828 -0.922,-2.391 C 93.754,7.503 92.844,7.229 91.625,7.229 l -1.141,0 0,-3.703 -1.312,0 0,9.766 c 0.187,0.039 0.394,0.078 0.625,0.109 0.226,0.031 0.457,0.055 0.687,0.078 0.227,0.02 0.454,0.032 0.672,0.032 0.219,0.007 0.422,0.015 0.61,0.015 z m 0.093,-1.14 c -0.281,0 -0.554,-0.008 -0.812,-0.016 -0.25,0 -0.438,-0.012 -0.563,-0.031 l 0,-4 1.078,0 c 0.801,0 1.395,0.16 1.782,0.484 0.394,0.32 0.594,0.848 0.594,1.578 0,1.32 -0.696,1.985 -2.079,1.985 z" /><path
         id="path34"
         style="fill:#000000;fill-opacity:1;fill-rule:nonzero;stroke:none"
         d="m 102.141,13.776 c -0.993,-0.762 -1.746,-1.648 -2.266,-2.656 -0.523,-1 -0.781,-2.094 -0.781,-3.281 0,-0.594 0.054,-1.157 0.172,-1.688 0.125,-0.531 0.312,-1.043 0.562,-1.531 0.25,-0.492 0.567,-0.965 0.953,-1.422 0.395,-0.469 0.86,-0.93 1.391,-1.391 l -0.719,-0.953 c -1.23,0.907 -2.148,1.961 -2.75,3.157 -0.594,1.195 -0.891,2.46 -0.891,3.796 0,1.321 0.301,2.586 0.907,3.797 0.601,1.207 1.515,2.254 2.734,3.141 l 0.703,-0.969 -0.015,0 z" /><path
         id="path36"
         style="fill:#000000;fill-opacity:1;fill-rule:nonzero;stroke:none"
         d="m 108.141,11.12 c 1,0 1.769,-0.313 2.312,-0.938 0.551,-0.617 0.828,-1.558 0.828,-2.828 l 0,-0.468 -5.312,0 c 0.051,-0.774 0.301,-1.356 0.75,-1.75 0.457,-0.399 1.097,-0.594 1.922,-0.594 0.468,0 0.867,0.035 1.203,0.109 0.332,0.07 0.582,0.149 0.75,0.235 l 0.172,-1.125 C 110.609,3.675 110.32,3.589 109.906,3.495 109.488,3.401 109.02,3.354 108.5,3.354 c -0.648,0 -1.215,0.102 -1.703,0.297 -0.481,0.195 -0.883,0.461 -1.203,0.797 -0.313,0.344 -0.555,0.75 -0.719,1.219 -0.156,0.476 -0.234,1 -0.234,1.562 0,0.657 0.097,1.227 0.297,1.719 0.207,0.488 0.472,0.895 0.796,1.219 0.332,0.32 0.707,0.562 1.125,0.719 0.414,0.156 0.844,0.234 1.282,0.234 z m 1.797,-3.156 c 0,0.625 -0.168,1.117 -0.5,1.484 -0.336,0.375 -0.774,0.563 -1.313,0.563 -0.313,0 -0.594,-0.063 -0.844,-0.188 -0.25,-0.117 -0.465,-0.273 -0.64,-0.469 -0.18,-0.187 -0.325,-0.406 -0.438,-0.656 C 106.098,8.456 106.031,8.214 106,7.964 l 3.938,0 z" /><path
         id="path38"
         style="fill:#000000;fill-opacity:1;fill-rule:nonzero;stroke:none"
         d="m 113.844,1.807 c 0.988,0.774 1.742,1.657 2.265,2.657 0.532,1.007 0.797,2.101 0.797,3.281 0,0.601 -0.062,1.172 -0.187,1.703 -0.117,0.531 -0.305,1.039 -0.563,1.531 -0.25,0.489 -0.574,0.961 -0.968,1.422 -0.387,0.457 -0.844,0.914 -1.376,1.375 l 0.719,0.969 c 1.227,-0.906 2.141,-1.965 2.735,-3.172 0.601,-1.199 0.906,-2.465 0.906,-3.797 0,-0.656 -0.078,-1.308 -0.234,-1.953 -0.149,-0.637 -0.376,-1.25 -0.688,-1.844 -0.305,-0.593 -0.684,-1.148 -1.141,-1.672 -0.449,-0.531 -0.976,-1.015 -1.578,-1.453 l -0.703,0.953 0.016,0 z" /><path
         id="path40"
         style="fill:#008080;fill-opacity:1;fill-rule:nonzero;stroke:none"
         d="m 128.5,7.229 c 0,0.657 0.098,1.235 0.297,1.735 0.207,0.5 0.473,0.914 0.797,1.25 0.332,0.343 0.711,0.597 1.14,0.765 0.426,0.176 0.864,0.266 1.313,0.266 1.113,0 1.957,-0.328 2.531,-0.984 0.57,-0.657 0.86,-1.618 0.86,-2.875 0,-0.137 -0.008,-0.274 -0.016,-0.407 0,-0.136 -0.008,-0.246 -0.016,-0.328 l -4.875,0 c 0,-0.492 0.203,-0.883 0.61,-1.172 0.406,-0.281 0.925,-0.422 1.562,-0.422 0.395,0 0.77,0.039 1.125,0.125 0.363,0.094 0.664,0.18 0.906,0.266 l 0.282,-1.687 c -0.344,-0.118 -0.711,-0.211 -1.094,-0.282 -0.387,-0.082 -0.82,-0.125 -1.297,-0.125 -0.648,0 -1.227,0.078 -1.734,0.235 -0.5,0.164 -0.93,0.41 -1.282,0.734 -0.355,0.332 -0.632,0.738 -0.828,1.219 -0.187,0.476 -0.281,1.039 -0.281,1.687 z m 5.031,0.782 c 0,0.195 -0.027,0.39 -0.078,0.578 -0.055,0.187 -0.137,0.351 -0.25,0.5 -0.117,0.156 -0.265,0.273 -0.453,0.359 -0.18,0.094 -0.402,0.141 -0.672,0.141 -0.25,0 -0.469,-0.043 -0.656,-0.125 -0.188,-0.086 -0.344,-0.203 -0.469,-0.36 -0.125,-0.148 -0.226,-0.32 -0.297,-0.515 -0.062,-0.188 -0.105,-0.383 -0.125,-0.578 l 3,0 z" /><path
         id="path42"
         style="fill:#008080;fill-opacity:1;fill-rule:nonzero;stroke:none"
         d="M 143.469,3.839 C 143.438,3.815 143.363,3.78 143.25,3.729 143.145,3.675 143,3.62 142.812,3.557 c -0.179,-0.05 -0.398,-0.097 -0.656,-0.14 -0.261,-0.039 -0.558,-0.063 -0.89,-0.063 -0.907,0 -1.571,0.266 -1.985,0.797 -0.418,0.539 -0.625,1.328 -0.625,2.36 l 0,6.39 -2.078,0 0,1.641 4.047,0 0,-8.172 c 0,-0.512 0.098,-0.859 0.297,-1.047 0.207,-0.18 0.469,-0.266 0.781,-0.266 0.383,0 0.711,0.051 0.985,0.157 0.269,0.113 0.445,0.187 0.531,0.218 l 0.25,-1.593 z" /><path
         id="path44"
         style="fill:#008080;fill-opacity:1;fill-rule:nonzero;stroke:none"
         d="m 147.641,5.011 c 0.488,0 0.859,0.035 1.109,0.109 0.258,0.07 0.391,0.211 0.391,0.422 0,0.133 -0.043,0.25 -0.125,0.344 -0.086,0.101 -0.2,0.187 -0.344,0.25 -0.137,0.07 -0.297,0.14 -0.484,0.203 -0.188,0.062 -0.387,0.129 -0.594,0.203 -0.282,0.082 -0.574,0.176 -0.875,0.281 -0.305,0.113 -0.578,0.254 -0.828,0.422 -0.243,0.176 -0.438,0.394 -0.594,0.656 -0.156,0.258 -0.235,0.586 -0.235,0.985 0,0.32 0.055,0.625 0.172,0.906 0.125,0.281 0.317,0.531 0.578,0.75 0.258,0.219 0.594,0.39 1,0.515 0.407,0.125 0.891,0.188 1.454,0.188 0.5,0 0.957,-0.043 1.375,-0.125 0.414,-0.074 0.781,-0.18 1.093,-0.313 l -0.296,-1.671 c -0.188,0.062 -0.477,0.148 -0.86,0.265 -0.375,0.125 -0.808,0.188 -1.297,0.188 -0.5,0 -0.84,-0.063 -1.015,-0.188 -0.168,-0.117 -0.25,-0.246 -0.25,-0.39 0,-0.118 0.035,-0.219 0.109,-0.313 0.082,-0.086 0.187,-0.168 0.313,-0.25 0.132,-0.074 0.289,-0.148 0.468,-0.219 0.176,-0.062 0.367,-0.125 0.578,-0.187 0.282,-0.094 0.578,-0.203 0.891,-0.328 0.313,-0.118 0.594,-0.262 0.844,-0.438 0.25,-0.18 0.453,-0.402 0.609,-0.672 0.164,-0.273 0.25,-0.605 0.25,-1 0,-0.312 -0.062,-0.609 -0.187,-0.89 -0.118,-0.274 -0.309,-0.512 -0.579,-0.719 -0.273,-0.199 -0.624,-0.356 -1.062,-0.469 -0.438,-0.113 -0.98,-0.172 -1.625,-0.172 -0.648,0 -1.199,0.074 -1.656,0.219 -0.461,0.145 -0.828,0.281 -1.11,0.406 l 0.313,1.641 c 0.375,-0.149 0.769,-0.289 1.187,-0.422 0.414,-0.125 0.844,-0.187 1.282,-0.187 z" /><path
         id="path46"
         style="fill:#008080;fill-opacity:1;fill-rule:nonzero;stroke:none"
         d="m 152.5,7.229 c 0,0.657 0.098,1.235 0.297,1.735 0.207,0.5 0.473,0.914 0.797,1.25 0.332,0.343 0.711,0.597 1.14,0.765 0.426,0.176 0.864,0.266 1.313,0.266 1.113,0 1.957,-0.328 2.531,-0.984 0.57,-0.657 0.86,-1.618 0.86,-2.875 0,-0.137 -0.008,-0.274 -0.016,-0.407 0,-0.136 -0.008,-0.246 -0.016,-0.328 l -4.875,0 c 0,-0.492 0.203,-0.883 0.61,-1.172 0.406,-0.281 0.925,-0.422 1.562,-0.422 0.395,0 0.77,0.039 1.125,0.125 0.363,0.094 0.664,0.18 0.906,0.266 l 0.282,-1.687 c -0.344,-0.118 -0.711,-0.211 -1.094,-0.282 -0.387,-0.082 -0.82,-0.125 -1.297,-0.125 -0.648,0 -1.227,0.078 -1.734,0.235 -0.5,0.164 -0.93,0.41 -1.282,0.734 -0.355,0.332 -0.632,0.738 -0.828,1.219 -0.187,0.476 -0.281,1.039 -0.281,1.687 z m 5.031,0.782 c 0,0.195 -0.027,0.39 -0.078,0.578 -0.055,0.187 -0.137,0.351 -0.25,0.5 -0.117,0.156 -0.265,0.273 -0.453,0.359 -0.18,0.094 -0.402,0.141 -0.672,0.141 -0.25,0 -0.469,-0.043 -0.656,-0.125 -0.188,-0.086 -0.344,-0.203 -0.469,-0.36 -0.125,-0.148 -0.226,-0.32 -0.297,-0.515 -0.062,-0.188 -0.105,-0.383 -0.125,-0.578 l 3,0 z" /><path
         id="path48"
         style="fill:#000000;fill-opacity:1;fill-rule:nonzero;stroke:none"
         d="m 173.531,4.214 c -0.148,-0.086 -0.375,-0.18 -0.687,-0.282 -0.305,-0.093 -0.656,-0.14 -1.063,-0.14 -0.437,0 -0.851,0.07 -1.234,0.219 -0.375,0.144 -0.703,0.363 -0.985,0.656 -0.281,0.289 -0.507,0.66 -0.671,1.109 -0.168,0.457 -0.25,1 -0.25,1.625 0,0.539 0.078,1.035 0.234,1.485 0.156,0.457 0.379,0.851 0.672,1.187 0.289,0.332 0.648,0.586 1.078,0.766 0.426,0.187 0.91,0.281 1.453,0.281 0.645,0 1.192,-0.047 1.641,-0.141 0.457,-0.086 0.836,-0.168 1.14,-0.25 l 0,-6.625 c 0,-1.156 -0.293,-1.988 -0.875,-2.5 -0.574,-0.508 -1.449,-0.765 -2.625,-0.765 -0.48,0 -0.918,0.039 -1.312,0.109 -0.387,0.074 -0.727,0.168 -1.016,0.281 l 0.235,1.157 c 0.281,-0.114 0.597,-0.208 0.953,-0.282 0.351,-0.07 0.742,-0.109 1.172,-0.109 0.769,0 1.316,0.156 1.64,0.469 0.332,0.304 0.5,0.804 0.5,1.5 l 0,0.25 z m 0,5.562 c -0.125,0.039 -0.304,0.082 -0.531,0.125 -0.219,0.039 -0.523,0.063 -0.906,0.063 -0.68,0 -1.199,-0.235 -1.563,-0.703 C 170.176,8.792 170,8.167 170,7.386 c 0,-0.43 0.047,-0.797 0.141,-1.11 0.101,-0.305 0.242,-0.555 0.421,-0.75 0.176,-0.187 0.376,-0.328 0.594,-0.422 0.227,-0.093 0.473,-0.14 0.735,-0.14 0.332,0 0.644,0.047 0.937,0.14 0.289,0.102 0.524,0.219 0.703,0.344 l 0,4.328 z" /><path
         id="path50"
         style="fill:#000000;fill-opacity:1;fill-rule:nonzero;stroke:none"
         d="m 182.141,13.776 c -0.993,-0.762 -1.746,-1.648 -2.266,-2.656 -0.523,-1 -0.781,-2.094 -0.781,-3.281 0,-0.594 0.054,-1.157 0.172,-1.688 0.125,-0.531 0.312,-1.043 0.562,-1.531 0.25,-0.492 0.567,-0.965 0.953,-1.422 0.395,-0.469 0.86,-0.93 1.391,-1.391 l -0.719,-0.953 c -1.23,0.907 -2.148,1.961 -2.75,3.157 -0.594,1.195 -0.891,2.46 -0.891,3.796 0,1.321 0.301,2.586 0.907,3.797 0.601,1.207 1.515,2.254 2.734,3.141 l 0.703,-0.969 -0.015,0 z" /><path
         id="path52"
         style="fill:#000000;fill-opacity:1;fill-rule:nonzero;stroke:none"
         d="m 188.141,11.12 c 1,0 1.769,-0.313 2.312,-0.938 0.551,-0.617 0.828,-1.558 0.828,-2.828 l 0,-0.468 -5.312,0 c 0.051,-0.774 0.301,-1.356 0.75,-1.75 0.457,-0.399 1.097,-0.594 1.922,-0.594 0.468,0 0.867,0.035 1.203,0.109 0.332,0.07 0.582,0.149 0.75,0.235 l 0.172,-1.125 C 190.609,3.675 190.32,3.589 189.906,3.495 189.488,3.401 189.02,3.354 188.5,3.354 c -0.648,0 -1.215,0.102 -1.703,0.297 -0.481,0.195 -0.883,0.461 -1.203,0.797 -0.313,0.344 -0.555,0.75 -0.719,1.219 -0.156,0.476 -0.234,1 -0.234,1.562 0,0.657 0.097,1.227 0.297,1.719 0.207,0.488 0.472,0.895 0.796,1.219 0.332,0.32 0.707,0.562 1.125,0.719 0.414,0.156 0.844,0.234 1.282,0.234 z m 1.797,-3.156 c 0,0.625 -0.168,1.117 -0.5,1.484 -0.336,0.375 -0.774,0.563 -1.313,0.563 -0.313,0 -0.594,-0.063 -0.844,-0.188 -0.25,-0.117 -0.465,-0.273 -0.64,-0.469 -0.18,-0.187 -0.325,-0.406 -0.438,-0.656 C 186.098,8.456 186.031,8.214 186,7.964 l 3.938,0 z" /><path
         id="path54"
         style="fill:#000000;fill-opacity:1;fill-rule:nonzero;stroke:none"
         d="m 193.844,1.807 c 0.988,0.774 1.742,1.657 2.265,2.657 0.532,1.007 0.797,2.101 0.797,3.281 0,0.601 -0.062,1.172 -0.187,1.703 -0.117,0.531 -0.305,1.039 -0.563,1.531 -0.25,0.489 -0.574,0.961 -0.968,1.422 -0.387,0.457 -0.844,0.914 -1.376,1.375 l 0.719,0.969 c 1.227,-0.906 2.141,-1.965 2.735,-3.172 0.601,-1.199 0.906,-2.465 0.906,-3.797 0,-0.656 -0.078,-1.308 -0.234,-1.953 -0.149,-0.637 -0.376,-1.25 -0.688,-1.844 -0.305,-0.593 -0.684,-1.148 -1.141,-1.672 -0.449,-0.531 -0.976,-1.015 -1.578,-1.453 l -0.703,0.953 0.016,0 z" /><path
         id="path56"
         style="fill:#008080;fill-opacity:1;fill-rule:nonzero;stroke:none"
         d="m 210.219,3.526 0,5.891 -1.641,0 0,1.625 1.641,0 0,0.437 c 0,0.602 0.086,1.102 0.265,1.5 0.176,0.407 0.411,0.727 0.704,0.969 0.3,0.238 0.644,0.41 1.031,0.516 0.383,0.101 0.781,0.156 1.187,0.156 0.414,0 0.844,-0.043 1.282,-0.125 0.437,-0.074 0.832,-0.195 1.187,-0.359 l -0.344,-1.594 c -0.242,0.082 -0.547,0.164 -0.922,0.25 -0.367,0.094 -0.714,0.14 -1.047,0.14 -0.179,0 -0.351,-0.015 -0.515,-0.046 -0.168,-0.032 -0.313,-0.106 -0.438,-0.219 -0.117,-0.106 -0.214,-0.258 -0.297,-0.453 -0.074,-0.188 -0.109,-0.446 -0.109,-0.766 l 0,-0.406 3.094,0 0,-1.625 -3.094,0 0,-5.891 -1.984,0 z" /><path
         id="path58"
         style="fill:#008080;fill-opacity:1;fill-rule:nonzero;stroke:none"
         d="m 223.547,7.307 c 0,-0.605 -0.086,-1.152 -0.25,-1.64 -0.168,-0.481 -0.406,-0.899 -0.719,-1.25 -0.312,-0.344 -0.687,-0.617 -1.125,-0.813 -0.43,-0.187 -0.906,-0.281 -1.437,-0.281 -0.532,0 -1.016,0.094 -1.454,0.281 -0.429,0.196 -0.804,0.469 -1.124,0.813 -0.313,0.351 -0.555,0.769 -0.719,1.25 -0.168,0.488 -0.25,1.035 -0.25,1.64 0,0.582 0.082,1.114 0.25,1.594 0.176,0.488 0.422,0.906 0.734,1.25 0.32,0.352 0.703,0.625 1.141,0.813 0.437,0.187 0.91,0.281 1.422,0.281 0.519,0 0.992,-0.094 1.422,-0.281 0.437,-0.188 0.812,-0.461 1.124,-0.813 0.321,-0.344 0.567,-0.762 0.735,-1.25 0.164,-0.48 0.25,-1.012 0.25,-1.594 z m -5.078,-0.015 c 0,-0.68 0.117,-1.227 0.359,-1.641 0.238,-0.418 0.625,-0.625 1.156,-0.625 0.508,0 0.895,0.207 1.157,0.625 0.257,0.414 0.39,0.961 0.39,1.641 0,0.664 -0.121,1.203 -0.359,1.609 -0.242,0.414 -0.625,0.625 -1.156,0.625 -0.512,0 -0.899,-0.211 -1.157,-0.625 -0.261,-0.406 -0.39,-0.945 -0.39,-1.609 z" /><path
         id="path60"
         style="fill:#008080;fill-opacity:1;fill-rule:nonzero;stroke:none"
         d="m 230.984,9.042 c -0.125,0.031 -0.277,0.062 -0.453,0.094 -0.179,0.031 -0.355,0.062 -0.531,0.093 -0.18,0.032 -0.355,0.051 -0.531,0.063 -0.168,0.008 -0.309,0.015 -0.422,0.015 -0.281,0 -0.559,-0.015 -0.828,-0.046 -0.262,-0.024 -0.531,-0.075 -0.813,-0.157 l 0,-5.578 -1.984,0 0,7.031 c 0.519,0.188 1.055,0.336 1.609,0.454 0.551,0.113 1.192,0.171 1.922,0.171 0.113,0 0.27,-0.007 0.469,-0.015 0.195,-0.012 0.406,-0.031 0.625,-0.063 0.226,-0.023 0.457,-0.054 0.687,-0.093 0.227,-0.032 0.43,-0.079 0.61,-0.141 l -0.36,-1.828 z" /><path
         id="path62"
         style="fill:#000000;fill-opacity:1;fill-rule:nonzero;stroke:none"
         d="m 244.141,11.12 c 1,0 1.769,-0.313 2.312,-0.938 0.551,-0.617 0.828,-1.558 0.828,-2.828 l 0,-0.468 -5.312,0 c 0.051,-0.774 0.301,-1.356 0.75,-1.75 0.457,-0.399 1.097,-0.594 1.922,-0.594 0.468,0 0.867,0.035 1.203,0.109 0.332,0.07 0.582,0.149 0.75,0.235 l 0.172,-1.125 C 246.609,3.675 246.32,3.589 245.906,3.495 245.488,3.401 245.02,3.354 244.5,3.354 c -0.648,0 -1.215,0.102 -1.703,0.297 -0.481,0.195 -0.883,0.461 -1.203,0.797 -0.313,0.344 -0.555,0.75 -0.719,1.219 -0.156,0.476 -0.234,1 -0.234,1.562 0,0.657 0.097,1.227 0.297,1.719 0.207,0.488 0.472,0.895 0.796,1.219 0.332,0.32 0.707,0.562 1.125,0.719 0.414,0.156 0.844,0.234 1.282,0.234 z m 1.797,-3.156 c 0,0.625 -0.168,1.117 -0.5,1.484 -0.336,0.375 -0.774,0.563 -1.313,0.563 -0.313,0 -0.594,-0.063 -0.844,-0.188 -0.25,-0.117 -0.465,-0.273 -0.64,-0.469 -0.18,-0.187 -0.325,-0.406 -0.438,-0.656 C 242.098,8.456 242.031,8.214 242,7.964 l 3.938,0 z" /><path
         id="path64"
         style="fill:#008080;fill-opacity:1;fill-rule:nonzero;stroke:none"
         d="m 260.547,13.214 c 0,-0.387 -0.125,-0.696 -0.375,-0.922 -0.242,-0.219 -0.531,-0.328 -0.875,-0.328 -0.344,0 -0.637,0.109 -0.875,0.328 -0.242,0.226 -0.36,0.535 -0.36,0.922 0,0.382 0.118,0.687 0.36,0.906 0.238,0.226 0.531,0.344 0.875,0.344 0.344,0 0.633,-0.118 0.875,-0.344 0.25,-0.219 0.375,-0.524 0.375,-0.906 z m 2.922,-9.375 c -0.407,-0.188 -0.789,-0.313 -1.141,-0.375 -0.355,-0.071 -0.683,-0.11 -0.984,-0.11 -0.512,0 -0.946,0.074 -1.297,0.219 -0.344,0.145 -0.621,0.359 -0.828,0.641 -0.211,0.289 -0.356,0.64 -0.438,1.047 -0.086,0.406 -0.125,0.867 -0.125,1.39 l 0,2.766 -2.078,0 0,1.625 4.047,0 0,-4.656 c 0,-0.45 0.082,-0.782 0.25,-1 0.164,-0.219 0.441,-0.329 0.828,-0.329 0.176,0 0.391,0.024 0.641,0.079 0.258,0.05 0.551,0.148 0.875,0.296 l 0.25,-1.593 z" /><path
         id="path66"
         style="fill:#008080;fill-opacity:1;fill-rule:nonzero;stroke:none"
         d="m 265.016,10.807 c 0.343,0.094 0.773,0.18 1.296,0.266 0.52,0.094 1.083,0.141 1.688,0.141 0.594,0 1.086,-0.086 1.484,-0.25 0.395,-0.168 0.707,-0.407 0.938,-0.719 0.226,-0.305 0.39,-0.664 0.484,-1.078 0.102,-0.418 0.156,-0.887 0.156,-1.406 l 0,-4.235 -1.968,0 0,3.985 c 0,0.707 -0.086,1.21 -0.25,1.515 -0.156,0.313 -0.481,0.469 -0.969,0.469 -0.156,0 -0.309,-0.008 -0.453,-0.016 -0.137,-0.011 -0.289,-0.027 -0.453,-0.047 l 0,-5.906 -1.953,0 0,7.281 z" /><path
         id="path68"
         style="fill:#000000;fill-opacity:1;fill-rule:nonzero;stroke:none"
         d="m 282.281,14.714 3.828,0 0,-1.047 -2.578,0 0,-11.735 2.578,0 0,-1.046 -3.828,0 0,13.828 z" /><path
         id="path70"
         style="fill:#000000;fill-opacity:1;fill-rule:nonzero;stroke:none"
         d="m 292.141,11.12 c 1,0 1.769,-0.313 2.312,-0.938 0.551,-0.617 0.828,-1.558 0.828,-2.828 l 0,-0.468 -5.312,0 c 0.051,-0.774 0.301,-1.356 0.75,-1.75 0.457,-0.399 1.097,-0.594 1.922,-0.594 0.468,0 0.867,0.035 1.203,0.109 0.332,0.07 0.582,0.149 0.75,0.235 l 0.172,-1.125 C 294.609,3.675 294.32,3.589 293.906,3.495 293.488,3.401 293.02,3.354 292.5,3.354 c -0.648,0 -1.215,0.102 -1.703,0.297 -0.481,0.195 -0.883,0.461 -1.203,0.797 -0.313,0.344 -0.555,0.75 -0.719,1.219 -0.156,0.476 -0.234,1 -0.234,1.562 0,0.657 0.097,1.227 0.297,1.719 0.207,0.488 0.472,0.895 0.796,1.219 0.332,0.32 0.707,0.562 1.125,0.719 0.414,0.156 0.844,0.234 1.282,0.234 z m 1.797,-3.156 c 0,0.625 -0.168,1.117 -0.5,1.484 -0.336,0.375 -0.774,0.563 -1.313,0.563 -0.313,0 -0.594,-0.063 -0.844,-0.188 -0.25,-0.117 -0.465,-0.273 -0.64,-0.469 -0.18,-0.187 -0.325,-0.406 -0.438,-0.656 C 290.098,8.456 290.031,8.214 290,7.964 l 3.938,0 z" /><path
         id="path72"
         style="fill:#000000;fill-opacity:1;fill-rule:nonzero;stroke:none"
         d="m 296.672,4.745 c 0.312,0.113 0.609,0.258 0.89,0.437 0.29,0.188 0.555,0.426 0.797,0.719 l 0.532,0 0,-4.953 1.047,0 0,-0.625 -3,0 0,0.625 1.218,0 0,3.906 C 298.082,4.8 298,4.737 297.906,4.667 297.812,4.604 297.707,4.542 297.594,4.479 297.488,4.425 297.375,4.374 297.25,4.323 297.133,4.268 297.02,4.221 296.906,4.182 l -0.234,0.563 z" /><path
         id="path74"
         style="fill:#000000;fill-opacity:1;fill-rule:nonzero;stroke:none"
         d="m 302.891,2.261 c 0.187,0.042 0.375,0.085 0.562,0.125 0.188,0.042 0.359,0.105 0.516,0.187 0.164,0.086 0.312,0.188 0.437,0.313 0.125,0.117 0.223,0.281 0.297,0.5 -0.336,0.031 -0.578,0.16 -0.734,0.39 -0.157,0.227 -0.235,0.453 -0.235,0.672 0,0.426 0.118,0.75 0.36,0.969 0.238,0.219 0.515,0.328 0.828,0.328 0.394,0 0.691,-0.141 0.89,-0.422 0.196,-0.281 0.297,-0.625 0.297,-1.031 0,-0.313 -0.062,-0.637 -0.187,-0.969 -0.117,-0.332 -0.297,-0.645 -0.547,-0.937 -0.25,-0.29 -0.563,-0.54 -0.937,-0.75 -0.376,-0.208 -0.821,-0.344 -1.329,-0.407 l -0.218,1.032 z" /><path
         id="path76"
         style="fill:#000000;fill-opacity:1;fill-rule:nonzero;stroke:none"
         d="m 320.641,11.12 c 1,0 1.769,-0.313 2.312,-0.938 0.551,-0.617 0.828,-1.558 0.828,-2.828 l 0,-0.468 -5.312,0 c 0.051,-0.774 0.301,-1.356 0.75,-1.75 0.457,-0.399 1.097,-0.594 1.922,-0.594 0.468,0 0.867,0.035 1.203,0.109 0.332,0.07 0.582,0.149 0.75,0.235 l 0.172,-1.125 C 323.109,3.675 322.82,3.589 322.406,3.495 321.988,3.401 321.52,3.354 321,3.354 c -0.648,0 -1.215,0.102 -1.703,0.297 -0.481,0.195 -0.883,0.461 -1.203,0.797 -0.313,0.344 -0.555,0.75 -0.719,1.219 -0.156,0.476 -0.234,1 -0.234,1.562 0,0.657 0.097,1.227 0.297,1.719 0.207,0.488 0.472,0.895 0.796,1.219 0.332,0.32 0.707,0.562 1.125,0.719 0.414,0.156 0.844,0.234 1.282,0.234 z m 1.797,-3.156 c 0,0.625 -0.168,1.117 -0.5,1.484 -0.336,0.375 -0.774,0.563 -1.313,0.563 -0.313,0 -0.594,-0.063 -0.844,-0.188 -0.25,-0.117 -0.465,-0.273 -0.64,-0.469 -0.18,-0.187 -0.325,-0.406 -0.438,-0.656 -0.105,-0.242 -0.172,-0.484 -0.203,-0.734 l 3.938,0 z" /><path
         id="path78"
         style="fill:#000000;fill-opacity:1;fill-rule:nonzero;stroke:none"
         d="m 328.281,4.479 c 0,-0.199 -0.039,-0.386 -0.109,-0.562 -0.074,-0.18 -0.172,-0.356 -0.297,-0.531 -0.125,-0.18 -0.266,-0.352 -0.422,-0.516 -0.156,-0.168 -0.32,-0.336 -0.484,-0.5 -0.086,-0.086 -0.188,-0.195 -0.313,-0.328 -0.117,-0.125 -0.23,-0.258 -0.344,-0.391 -0.105,-0.125 -0.195,-0.25 -0.265,-0.375 -0.074,-0.125 -0.109,-0.234 -0.109,-0.328 l 2.562,0 0,-0.625 -3.375,0 c 0,0.031 0,0.063 0,0.094 0,0.031 0,0.062 0,0.094 0,0.25 0.039,0.484 0.125,0.703 0.082,0.218 0.188,0.422 0.312,0.609 0.133,0.195 0.286,0.379 0.454,0.547 0.164,0.164 0.328,0.332 0.484,0.5 0.133,0.133 0.266,0.266 0.391,0.391 0.125,0.125 0.234,0.25 0.328,0.375 0.093,0.125 0.164,0.253 0.219,0.39 0.062,0.133 0.093,0.274 0.093,0.422 0,0.156 -0.027,0.289 -0.078,0.406 -0.055,0.114 -0.125,0.207 -0.219,0.282 -0.086,0.082 -0.183,0.14 -0.296,0.171 -0.118,0.039 -0.243,0.063 -0.376,0.063 -0.148,0 -0.289,-0.027 -0.421,-0.078 -0.125,-0.043 -0.243,-0.094 -0.344,-0.156 -0.094,-0.055 -0.18,-0.11 -0.25,-0.172 -0.074,-0.055 -0.133,-0.094 -0.172,-0.125 l -0.359,0.515 c 0.039,0.051 0.109,0.114 0.203,0.188 0.101,0.082 0.222,0.156 0.359,0.219 0.133,0.07 0.285,0.132 0.453,0.187 0.164,0.051 0.344,0.078 0.531,0.078 0.583,0 1.016,-0.137 1.297,-0.406 0.282,-0.274 0.422,-0.652 0.422,-1.141 z" /><path
         id="path80"
         style="fill:#000000;fill-opacity:1;fill-rule:nonzero;stroke:none"
         d="m 331.391,2.261 c 0.187,0.042 0.375,0.085 0.562,0.125 0.188,0.042 0.359,0.105 0.516,0.187 0.164,0.086 0.312,0.188 0.437,0.313 0.125,0.117 0.223,0.281 0.297,0.5 -0.336,0.031 -0.578,0.16 -0.734,0.39 -0.157,0.227 -0.235,0.453 -0.235,0.672 0,0.426 0.118,0.75 0.36,0.969 0.238,0.219 0.515,0.328 0.828,0.328 0.394,0 0.691,-0.141 0.89,-0.422 0.196,-0.281 0.297,-0.625 0.297,-1.031 0,-0.313 -0.062,-0.637 -0.187,-0.969 -0.117,-0.332 -0.297,-0.645 -0.547,-0.937 -0.25,-0.29 -0.563,-0.54 -0.937,-0.75 -0.376,-0.208 -0.821,-0.344 -1.329,-0.407 l -0.218,1.032 z" /><path
         id="path82"
         style="fill:#000000;fill-opacity:1;fill-rule:nonzero;stroke:none"
         d="m 349.141,11.12 c 1,0 1.769,-0.313 2.312,-0.938 0.551,-0.617 0.828,-1.558 0.828,-2.828 l 0,-0.468 -5.312,0 c 0.051,-0.774 0.301,-1.356 0.75,-1.75 0.457,-0.399 1.097,-0.594 1.922,-0.594 0.468,0 0.867,0.035 1.203,0.109 0.332,0.07 0.582,0.149 0.75,0.235 l 0.172,-1.125 C 351.609,3.675 351.32,3.589 350.906,3.495 350.488,3.401 350.02,3.354 349.5,3.354 c -0.648,0 -1.215,0.102 -1.703,0.297 -0.481,0.195 -0.883,0.461 -1.203,0.797 -0.313,0.344 -0.555,0.75 -0.719,1.219 -0.156,0.476 -0.234,1 -0.234,1.562 0,0.657 0.097,1.227 0.297,1.719 0.207,0.488 0.472,0.895 0.796,1.219 0.332,0.32 0.707,0.562 1.125,0.719 0.414,0.156 0.844,0.234 1.282,0.234 z m 1.797,-3.156 c 0,0.625 -0.168,1.117 -0.5,1.484 -0.336,0.375 -0.774,0.563 -1.313,0.563 -0.313,0 -0.594,-0.063 -0.844,-0.188 -0.25,-0.117 -0.465,-0.273 -0.64,-0.469 -0.18,-0.187 -0.325,-0.406 -0.438,-0.656 C 347.098,8.456 347.031,8.214 347,7.964 l 3.938,0 z" /><path
         id="path84"
         style="fill:#000000;fill-opacity:1;fill-rule:nonzero;stroke:none"
         d="m 354.906,0.87 c 0.477,0 0.817,0.094 1.016,0.281 0.195,0.188 0.297,0.438 0.297,0.75 0,0.207 -0.043,0.379 -0.125,0.516 -0.086,0.133 -0.196,0.242 -0.328,0.328 -0.137,0.094 -0.297,0.156 -0.485,0.187 -0.179,0.032 -0.367,0.047 -0.562,0.047 l -0.188,0 0,0.61 0.266,0 c 0.125,0 0.254,0.007 0.391,0.031 0.144,0.031 0.273,0.082 0.39,0.156 0.125,0.07 0.223,0.164 0.297,0.281 0.07,0.125 0.109,0.274 0.109,0.454 0,0.312 -0.101,0.531 -0.296,0.656 -0.188,0.133 -0.407,0.203 -0.657,0.203 -0.261,0 -0.48,-0.043 -0.656,-0.125 -0.18,-0.074 -0.328,-0.149 -0.453,-0.219 l -0.281,0.563 c 0.125,0.093 0.312,0.187 0.562,0.281 0.258,0.101 0.547,0.156 0.859,0.156 0.29,0 0.54,-0.039 0.75,-0.109 0.208,-0.074 0.379,-0.18 0.516,-0.313 0.133,-0.136 0.234,-0.293 0.297,-0.468 0.07,-0.18 0.109,-0.372 0.109,-0.579 0,-0.293 -0.078,-0.543 -0.234,-0.75 -0.148,-0.199 -0.34,-0.351 -0.578,-0.453 0.281,-0.093 0.523,-0.261 0.734,-0.5 0.219,-0.242 0.328,-0.562 0.328,-0.968 0,-0.243 -0.043,-0.465 -0.125,-0.672 -0.086,-0.211 -0.211,-0.387 -0.375,-0.532 -0.168,-0.148 -0.382,-0.261 -0.64,-0.343 -0.262,-0.082 -0.571,-0.125 -0.922,-0.125 -0.149,0 -0.293,0.011 -0.438,0.031 -0.148,0.023 -0.281,0.047 -0.406,0.078 -0.125,0.031 -0.242,0.063 -0.344,0.094 -0.093,0.031 -0.164,0.054 -0.203,0.078 l 0.141,0.641 c 0.094,-0.055 0.242,-0.11 0.453,-0.172 0.219,-0.063 0.477,-0.094 0.781,-0.094 z" /><path
         id="path86"
         style="fill:#000000;fill-opacity:1;fill-rule:nonzero;stroke:none"
         d="m 359.891,2.261 c 0.187,0.042 0.375,0.085 0.562,0.125 0.188,0.042 0.359,0.105 0.516,0.187 0.164,0.086 0.312,0.188 0.437,0.313 0.125,0.117 0.223,0.281 0.297,0.5 -0.336,0.031 -0.578,0.16 -0.734,0.39 -0.157,0.227 -0.235,0.453 -0.235,0.672 0,0.426 0.118,0.75 0.36,0.969 0.238,0.219 0.515,0.328 0.828,0.328 0.394,0 0.691,-0.141 0.89,-0.422 0.196,-0.281 0.297,-0.625 0.297,-1.031 0,-0.313 -0.062,-0.637 -0.187,-0.969 -0.117,-0.332 -0.297,-0.645 -0.547,-0.937 -0.25,-0.29 -0.563,-0.54 -0.937,-0.75 -0.376,-0.208 -0.821,-0.344 -1.329,-0.407 l -0.218,1.032 z" /><path
         id="path88"
         style="fill:#000000;fill-opacity:1;fill-rule:nonzero;stroke:none"
         d="m 375.688,4.198 c 0,-0.242 -0.079,-0.445 -0.235,-0.609 -0.148,-0.164 -0.351,-0.25 -0.609,-0.25 -0.262,0 -0.469,0.086 -0.625,0.25 C 374.07,3.753 374,3.956 374,4.198 c 0,0.238 0.07,0.441 0.219,0.609 0.156,0.164 0.363,0.25 0.625,0.25 0.258,0 0.461,-0.086 0.609,-0.25 0.156,-0.168 0.235,-0.371 0.235,-0.609 z m 2.656,0 c 0,-0.242 -0.074,-0.445 -0.219,-0.609 -0.148,-0.164 -0.352,-0.25 -0.609,-0.25 -0.262,0 -0.465,0.086 -0.61,0.25 -0.148,0.164 -0.218,0.367 -0.218,0.609 0,0.238 0.07,0.441 0.218,0.609 0.145,0.164 0.348,0.25 0.61,0.25 0.257,0 0.461,-0.086 0.609,-0.25 0.145,-0.168 0.219,-0.371 0.219,-0.609 z m 2.656,0 c 0,-0.242 -0.074,-0.445 -0.219,-0.609 -0.148,-0.164 -0.351,-0.25 -0.609,-0.25 -0.262,0 -0.465,0.086 -0.61,0.25 -0.148,0.164 -0.218,0.367 -0.218,0.609 0,0.238 0.07,0.441 0.218,0.609 0.145,0.164 0.348,0.25 0.61,0.25 0.258,0 0.461,-0.086 0.609,-0.25 C 380.926,4.639 381,4.436 381,4.198 Z" /><path
         id="path90"
         style="fill:#000000;fill-opacity:1;fill-rule:nonzero;stroke:none"
         d="m 383.891,2.261 c 0.187,0.042 0.375,0.085 0.562,0.125 0.188,0.042 0.359,0.105 0.516,0.187 0.164,0.086 0.312,0.188 0.437,0.313 0.125,0.117 0.223,0.281 0.297,0.5 -0.336,0.031 -0.578,0.16 -0.734,0.39 -0.157,0.227 -0.235,0.453 -0.235,0.672 0,0.426 0.118,0.75 0.36,0.969 0.238,0.219 0.515,0.328 0.828,0.328 0.394,0 0.691,-0.141 0.89,-0.422 0.196,-0.281 0.297,-0.625 0.297,-1.031 0,-0.313 -0.062,-0.637 -0.187,-0.969 -0.117,-0.332 -0.297,-0.645 -0.547,-0.937 -0.25,-0.29 -0.563,-0.54 -0.937,-0.75 -0.376,-0.208 -0.821,-0.344 -1.329,-0.407 l -0.218,1.032 z" /><path
         id="path92"
         style="fill:#000000;fill-opacity:1;fill-rule:nonzero;stroke:none"
         d="m 401.641,11.12 c 1,0 1.769,-0.313 2.312,-0.938 0.551,-0.617 0.828,-1.558 0.828,-2.828 l 0,-0.468 -5.312,0 c 0.051,-0.774 0.301,-1.356 0.75,-1.75 0.457,-0.399 1.097,-0.594 1.922,-0.594 0.468,0 0.867,0.035 1.203,0.109 0.332,0.07 0.582,0.149 0.75,0.235 l 0.172,-1.125 C 404.109,3.675 403.82,3.589 403.406,3.495 402.988,3.401 402.52,3.354 402,3.354 c -0.648,0 -1.215,0.102 -1.703,0.297 -0.481,0.195 -0.883,0.461 -1.203,0.797 -0.313,0.344 -0.555,0.75 -0.719,1.219 -0.156,0.476 -0.234,1 -0.234,1.562 0,0.657 0.097,1.227 0.297,1.719 0.207,0.488 0.472,0.895 0.796,1.219 0.332,0.32 0.707,0.562 1.125,0.719 0.414,0.156 0.844,0.234 1.282,0.234 z m 1.797,-3.156 c 0,0.625 -0.168,1.117 -0.5,1.484 -0.336,0.375 -0.774,0.563 -1.313,0.563 -0.313,0 -0.594,-0.063 -0.844,-0.188 -0.25,-0.117 -0.465,-0.273 -0.64,-0.469 -0.18,-0.187 -0.325,-0.406 -0.438,-0.656 -0.105,-0.242 -0.172,-0.484 -0.203,-0.734 l 3.938,0 z" /><path
         id="path94"
         style="fill:#000000;fill-opacity:1;fill-rule:nonzero;stroke:none"
         d="m 406.141,4.386 c 0.269,0.062 0.535,0.109 0.797,0.14 0.269,0.039 0.523,0.063 0.765,0.063 0.551,0 0.969,-0.149 1.25,-0.438 0.289,-0.281 0.438,-0.742 0.438,-1.375 l 0,-2.453 -0.735,0 0,2.313 c 0,0.269 -0.027,0.488 -0.078,0.656 -0.055,0.164 -0.121,0.297 -0.203,0.39 -0.086,0.094 -0.187,0.157 -0.313,0.188 -0.124,0.039 -0.261,0.062 -0.406,0.062 -0.117,0 -0.242,-0.011 -0.375,-0.031 -0.136,-0.012 -0.265,-0.027 -0.39,-0.047 l 0,-3.531 -0.75,0 0,4.063 z" /><path
         id="path96"
         style="fill:#000000;fill-opacity:1;fill-rule:nonzero;stroke:none"
         d="m 411.266,2.964 1.969,0 0,-0.703 -1.969,0 0,0.703 z" /><path
         id="path98"
         style="fill:#000000;fill-opacity:1;fill-rule:nonzero;stroke:none"
         d="m 415.172,4.745 c 0.312,0.113 0.609,0.258 0.89,0.437 0.29,0.188 0.555,0.426 0.797,0.719 l 0.532,0 0,-4.953 1.047,0 0,-0.625 -3,0 0,0.625 1.218,0 0,3.906 C 416.582,4.8 416.5,4.737 416.406,4.667 416.312,4.604 416.207,4.542 416.094,4.479 415.988,4.425 415.875,4.374 415.75,4.323 415.633,4.268 415.52,4.221 415.406,4.182 l -0.234,0.563 z" /><path
         id="path100"
         style="fill:#000000;fill-opacity:1;fill-rule:nonzero;stroke:none"
         d="m 421.391,2.261 c 0.187,0.042 0.375,0.085 0.562,0.125 0.188,0.042 0.359,0.105 0.516,0.187 0.164,0.086 0.312,0.188 0.437,0.313 0.125,0.117 0.223,0.281 0.297,0.5 -0.336,0.031 -0.578,0.16 -0.734,0.39 -0.157,0.227 -0.235,0.453 -0.235,0.672 0,0.426 0.118,0.75 0.36,0.969 0.238,0.219 0.515,0.328 0.828,0.328 0.394,0 0.691,-0.141 0.89,-0.422 0.196,-0.281 0.297,-0.625 0.297,-1.031 0,-0.313 -0.062,-0.637 -0.187,-0.969 -0.117,-0.332 -0.297,-0.645 -0.547,-0.937 -0.25,-0.29 -0.563,-0.54 -0.937,-0.75 -0.376,-0.208 -0.821,-0.344 -1.329,-0.407 l -0.218,1.032 z" /><path
         id="path102"
         style="fill:#000000;fill-opacity:1;fill-rule:nonzero;stroke:none"
         d="m 439.141,11.12 c 1,0 1.769,-0.313 2.312,-0.938 0.551,-0.617 0.828,-1.558 0.828,-2.828 l 0,-0.468 -5.312,0 c 0.051,-0.774 0.301,-1.356 0.75,-1.75 0.457,-0.399 1.097,-0.594 1.922,-0.594 0.468,0 0.867,0.035 1.203,0.109 0.332,0.07 0.582,0.149 0.75,0.235 l 0.172,-1.125 C 441.609,3.675 441.32,3.589 440.906,3.495 440.488,3.401 440.02,3.354 439.5,3.354 c -0.648,0 -1.215,0.102 -1.703,0.297 -0.481,0.195 -0.883,0.461 -1.203,0.797 -0.313,0.344 -0.555,0.75 -0.719,1.219 -0.156,0.476 -0.234,1 -0.234,1.562 0,0.657 0.097,1.227 0.297,1.719 0.207,0.488 0.472,0.895 0.796,1.219 0.332,0.32 0.707,0.562 1.125,0.719 0.414,0.156 0.844,0.234 1.282,0.234 z m 1.797,-3.156 c 0,0.625 -0.168,1.117 -0.5,1.484 -0.336,0.375 -0.774,0.563 -1.313,0.563 -0.313,0 -0.594,-0.063 -0.844,-0.188 -0.25,-0.117 -0.465,-0.273 -0.64,-0.469 -0.18,-0.187 -0.325,-0.406 -0.438,-0.656 C 437.098,8.456 437.031,8.214 437,7.964 l 3.938,0 z" /><path
         id="path104"
         style="fill:#000000;fill-opacity:1;fill-rule:nonzero;stroke:none"
         d="m 443.641,4.386 c 0.269,0.062 0.535,0.109 0.797,0.14 0.269,0.039 0.523,0.063 0.765,0.063 0.551,0 0.969,-0.149 1.25,-0.438 0.289,-0.281 0.438,-0.742 0.438,-1.375 l 0,-2.453 -0.735,0 0,2.313 c 0,0.269 -0.027,0.488 -0.078,0.656 -0.055,0.164 -0.121,0.297 -0.203,0.39 -0.086,0.094 -0.187,0.157 -0.313,0.188 -0.124,0.039 -0.261,0.062 -0.406,0.062 -0.117,0 -0.242,-0.011 -0.375,-0.031 -0.136,-0.012 -0.265,-0.027 -0.39,-0.047 l 0,-3.531 -0.75,0 0,4.063 z" /><path
         id="path106"
         style="fill:#000000;fill-opacity:1;fill-rule:nonzero;stroke:none"
         d="m 453.219,0.886 -3.828,0 0,1.046 2.578,0 0,11.735 -2.578,0 0,1.047 3.828,0 0,-13.828 z" /><path
         id="path108"
         style="fill:#000000;fill-opacity:1;fill-rule:nonzero;stroke:none"
         d="m 469.219,0.886 -3.828,0 0,1.046 2.578,0 0,11.735 -2.578,0 0,1.047 3.828,0 0,-13.828 z" /></g></g></svg>