<?xml version="1.0" encoding="UTF-8" standalone="no"?>
<svg
   xmlns:dc="http://purl.org/dc/elements/1.1/"
   xmlns:cc="http://creativecommons.org/ns#"
   xmlns:rdf="http://www.w3.org/1999/02/22-rdf-syntax-ns#"
   xmlns:svg="http://www.w3.org/2000/svg"
   xmlns="http://www.w3.org/2000/svg"
   xmlns:sodipodi="http://sodipodi.sourceforge.net/DTD/sodipodi-0.dtd"
   xmlns:inkscape="http://www.inkscape.org/namespaces/inkscape"
   height="117.94343"
   width="118.16909"
   version="1.1"
   viewBox="0 0 118.16909 117.94343"
   id="svg847"
   sodipodi:docname="Python_icon_(black_and_white).svg"
   inkscape:version="1.0beta1 (32d4812, 2019-09-19)">
  <metadata
     id="metadata853">
    <rdf:RDF>
      <cc:Work
         rdf:about="">
        <dc:format>image/svg+xml</dc:format>
        <dc:type
           rdf:resource="http://purl.org/dc/dcmitype/StillImage" />
        <dc:title></dc:title>
      </cc:Work>
    </rdf:RDF>
  </metadata>
  <defs
     id="defs851" />
  <sodipodi:namedview
     fit-margin-bottom="0"
     fit-margin-right="0"
     fit-margin-left="0"
     fit-margin-top="0"
     pagecolor="#ffffff"
     bordercolor="#666666"
     inkscape:document-rotation="0"
     borderopacity="1"
     objecttolerance="10"
     gridtolerance="10"
     guidetolerance="10"
     inkscape:pageopacity="0"
     inkscape:pageshadow="2"
     inkscape:window-width="1223"
     inkscape:window-height="755"
     id="namedview849"
     showgrid="false"
     inkscape:zoom="2.38129"
     inkscape:cx="128.29181"
     inkscape:cy="103.89901"
     inkscape:window-x="0"
     inkscape:window-y="23"
     inkscape:window-maximized="0"
     inkscape:current-layer="svg847" />
  <path
     sodipodi:nodetypes="ccccccscccccszczsccccscc"
     id="path8615-1"
     style="color:#000000;display:inline;overflow:visible;visibility:visible;opacity:1;fill:#ffffff;fill-opacity:1;fill-rule:nonzero;stroke:none;stroke-width:1.07214;stroke-linecap:butt;stroke-linejoin:miter;stroke-miterlimit:4;stroke-dasharray:none;stroke-dashoffset:0;stroke-opacity:1;marker:none;marker-start:none;marker-mid:none;marker-end:none;stop-opacity:1"
     d="M 56.852977,0 C 26.799166,2e-6 28.719408,12.989659 28.719408,12.989659 l -0.03142,6.409924 v 0 l 0.04349,9.537263 -9.500057,0.02728 C 19.231421,28.964126 0,28.582294 0,58.906865 0,84.116387 11.450615,89.568336 15.364086,90.034874 v 0 l 0.663189,0.06162 c 4.662156,-0.03951 8.680754,-0.06162 12.825366,-0.06162 v 12.318306 c 0,0 -0.639466,15.59025 30.76813,15.59025 30.05382,0 30.14711,-14.15741 30.186731,-15.85925 0.03962,-1.70185 -0.125605,-12.720456 -0.125605,-12.720456 0,0 8.104944,-0.147031 9.725075,-0.314012 1.620128,-0.16698 18.762118,-1.36847 18.762118,-31.693046 2e-5,-30.324559 -16.78561,-29.249188 -16.78561,-29.249188 l -8.600132,-0.02311 v 0 l -3.252471,-0.03202 0.016,-12.164908 c 0,-2e-6 0.627131,-15.713483 -30.780469,-15.713483 z"
     inkscape:connector-curvature="0" />
  <path
     inkscape:connector-curvature="0"
     id="path8615"
     d="m 58.79516,4.135829 c -28.031732,2e-6 -26.28125,12.15625 -26.28125,12.15625 l 0.03125,12.59375 h 26.75 v 3.78125 h -37.375 c 0,0 -17.9375,-2.034276 -17.9375,26.25 -2e-6,28.28427 15.65625,27.28125 15.65625,27.28125 h 9.34375 v -13.125 c 0,0 -0.503652,-15.65625 15.40625,-15.65625 15.9099,0 26.53125,0 26.53125,0 0,0 14.90625,0.24096 14.90625,-14.40625 0,-14.647206 0,-24.21875 0,-24.21875 0,-2e-6 2.26318,-14.65625 -27.03125,-14.65625 z m -14.75,8.46875 c 2.661429,-2e-6 4.8125,2.151071 4.8125,4.8125 2e-6,2.661429 -2.151071,4.8125 -4.8125,4.8125 -2.661429,2e-6 -4.8125,-2.151071 -4.8125,-4.8125 -2e-6,-2.661429 2.151071,-4.8125 4.8125,-4.8125 z"
     style="color:#000000;display:inline;overflow:visible;visibility:visible;opacity:1;fill:#333333;fill-opacity:1;fill-rule:nonzero;stroke:none;stroke-width:1;stroke-linecap:butt;stroke-linejoin:miter;stroke-miterlimit:4;stroke-dasharray:none;stroke-dashoffset:0;stroke-opacity:1;marker:none;marker-start:none;marker-mid:none;marker-end:none;stop-opacity:1" />
  <path
     inkscape:connector-curvature="0"
     style="color:#000000;display:inline;overflow:visible;visibility:visible;opacity:1;fill:#808080;fill-opacity:1;fill-rule:nonzero;stroke:none;stroke-width:1;stroke-linecap:butt;stroke-linejoin:miter;stroke-miterlimit:4;stroke-dasharray:none;stroke-dashoffset:0;stroke-opacity:1;marker:none;marker-start:none;marker-mid:none;marker-end:none;stop-opacity:1"
     d="m 59.59126,113.98193 c 28.03174,0 26.28125,-12.15625 26.28125,-12.15625 l -0.0312,-12.593751 h -26.75 v -3.78125 h 37.375 c 0,0 17.9375,2.03427 17.9375,-26.25001 1e-5,-28.284267 -15.65625,-27.281247 -15.65625,-27.281247 h -9.34375 v 13.124997 c 0,0 0.50366,15.65625 -15.40625,15.65625 -15.909902,0 -26.531252,0 -26.531252,0 0,0 -14.90625,-0.24096 -14.90625,14.40626 0,14.6472 0,24.21875 0,24.21875 0,0 -2.26318,14.656251 27.031252,14.656251 z m 14.75,-8.46875 c -2.66143,0 -4.8125,-2.15107 -4.8125,-4.8125 0,-2.661431 2.15107,-4.812501 4.8125,-4.812501 2.66143,0 4.8125,2.15107 4.8125,4.812501 10e-6,2.66143 -2.15107,4.8125 -4.8125,4.8125 z"
     id="path8620" />
</svg>
